<mxfile host="app.diagrams.net" modified="2022-04-23T14:18:45.098Z" agent="5.0 (Macintosh; Intel Mac OS X 10_15_7) AppleWebKit/605.1.15 (KHTML, like Gecko) Version/15.3 Safari/605.1.15" etag="YCdYz9Txvj5D8OSVIjeP" version="17.4.6" type="github">
  <diagram id="YCTGJR02snR9csBezVZd" name="Page-1">
    <mxGraphModel dx="5438" dy="4918" grid="1" gridSize="10" guides="1" tooltips="1" connect="1" arrows="1" fold="1" page="1" pageScale="1" pageWidth="827" pageHeight="1169" math="0" shadow="0">
      <root>
        <mxCell id="0" />
        <mxCell id="1" parent="0" />
        <mxCell id="xKcL2Yq7u38zt2-6ZfmB-1" value="" style="rounded=0;whiteSpace=wrap;html=1;fillColor=none;dashed=1;" vertex="1" parent="1">
          <mxGeometry x="-1140" y="-1170" width="3460" height="1000" as="geometry" />
        </mxCell>
        <mxCell id="_OpLvnGNROC4zTUCR6nX-82" value="" style="endArrow=block;endSize=16;endFill=0;html=1;rounded=0;entryX=0.5;entryY=0;entryDx=0;entryDy=0;exitX=0.5;exitY=1;exitDx=0;exitDy=0;" parent="1" source="7-aJ9GHmP8vsTWekd-Si-77" target="7-aJ9GHmP8vsTWekd-Si-12" edge="1">
          <mxGeometry x="-1" y="140" width="160" relative="1" as="geometry">
            <mxPoint x="1220" y="-680" as="sourcePoint" />
            <mxPoint x="1380" y="-680" as="targetPoint" />
            <mxPoint x="-140" y="130" as="offset" />
            <Array as="points">
              <mxPoint x="690" y="-1060" />
              <mxPoint x="550" y="-1060" />
            </Array>
          </mxGeometry>
        </mxCell>
        <mxCell id="7-aJ9GHmP8vsTWekd-Si-12" value="&lt;p style=&quot;margin: 0px ; margin-top: 4px ; text-align: center&quot;&gt;&lt;b&gt;Block&lt;/b&gt;&lt;/p&gt;&lt;hr size=&quot;1&quot;&gt;&lt;div style=&quot;height: 2px&quot;&gt;&lt;/div&gt;" style="verticalAlign=top;align=left;overflow=fill;fontSize=12;fontFamily=Helvetica;html=1;fillColor=#dae8fc;strokeColor=#6c8ebf;" parent="1" vertex="1">
          <mxGeometry x="430" y="-700" width="240" height="50" as="geometry" />
        </mxCell>
        <mxCell id="7-aJ9GHmP8vsTWekd-Si-14" value="&lt;p style=&quot;margin: 0px ; margin-top: 4px ; text-align: center&quot;&gt;&lt;b&gt;Abstract Type&lt;/b&gt;&lt;/p&gt;&lt;hr size=&quot;1&quot;&gt;&lt;div style=&quot;height: 2px&quot;&gt;&lt;/div&gt;" style="verticalAlign=top;align=left;overflow=fill;fontSize=12;fontFamily=Helvetica;html=1;" parent="1" vertex="1">
          <mxGeometry x="290" y="-570" width="240" height="50" as="geometry" />
        </mxCell>
        <mxCell id="7-aJ9GHmP8vsTWekd-Si-15" value="&lt;p style=&quot;margin: 0px ; margin-top: 4px ; text-align: center&quot;&gt;&lt;b&gt;Bus Type&lt;/b&gt;&lt;/p&gt;&lt;hr size=&quot;1&quot;&gt;&lt;div style=&quot;height: 2px&quot;&gt;&lt;/div&gt;" style="verticalAlign=top;align=left;overflow=fill;fontSize=12;fontFamily=Helvetica;html=1;" parent="1" vertex="1">
          <mxGeometry x="570" y="-570" width="240" height="50" as="geometry" />
        </mxCell>
        <mxCell id="7-aJ9GHmP8vsTWekd-Si-16" value="&lt;p style=&quot;margin: 0px ; margin-top: 4px ; text-align: center&quot;&gt;&lt;b&gt;Device Type&lt;/b&gt;&lt;/p&gt;&lt;hr size=&quot;1&quot;&gt;&lt;div style=&quot;height: 2px&quot;&gt;&lt;/div&gt;" style="verticalAlign=top;align=left;overflow=fill;fontSize=12;fontFamily=Helvetica;html=1;" parent="1" vertex="1">
          <mxGeometry x="850" y="-570" width="240" height="50" as="geometry" />
        </mxCell>
        <mxCell id="7-aJ9GHmP8vsTWekd-Si-17" value="&lt;p style=&quot;margin: 0px ; margin-top: 4px ; text-align: center&quot;&gt;&lt;b&gt;Fe&lt;span style=&quot;white-space: pre&quot;&gt;ature Group&lt;/span&gt;&amp;nbsp;Type&lt;/b&gt;&lt;/p&gt;&lt;hr size=&quot;1&quot;&gt;&lt;div style=&quot;height: 2px&quot;&gt;&lt;/div&gt;" style="verticalAlign=top;align=left;overflow=fill;fontSize=12;fontFamily=Helvetica;html=1;" parent="1" vertex="1">
          <mxGeometry x="850" y="-1140" width="240" height="50" as="geometry" />
        </mxCell>
        <mxCell id="7-aJ9GHmP8vsTWekd-Si-18" value="&lt;p style=&quot;margin: 0px ; margin-top: 4px ; text-align: center&quot;&gt;&lt;b&gt;Memory Type&lt;/b&gt;&lt;/p&gt;&lt;hr size=&quot;1&quot;&gt;&lt;div style=&quot;height: 2px&quot;&gt;&lt;/div&gt;" style="verticalAlign=top;align=left;overflow=fill;fontSize=12;fontFamily=Helvetica;html=1;" parent="1" vertex="1">
          <mxGeometry x="10" y="-460" width="240" height="50" as="geometry" />
        </mxCell>
        <mxCell id="7-aJ9GHmP8vsTWekd-Si-19" value="&lt;p style=&quot;margin: 0px ; margin-top: 4px ; text-align: center&quot;&gt;&lt;b&gt;Process Type&lt;/b&gt;&lt;/p&gt;&lt;hr size=&quot;1&quot;&gt;&lt;div style=&quot;height: 2px&quot;&gt;&lt;/div&gt;" style="verticalAlign=top;align=left;overflow=fill;fontSize=12;fontFamily=Helvetica;html=1;" parent="1" vertex="1">
          <mxGeometry x="567" y="-460" width="240" height="50" as="geometry" />
        </mxCell>
        <mxCell id="7-aJ9GHmP8vsTWekd-Si-20" value="&lt;p style=&quot;margin: 0px ; margin-top: 4px ; text-align: center&quot;&gt;&lt;b&gt;Processor Type&lt;/b&gt;&lt;/p&gt;&lt;hr size=&quot;1&quot;&gt;&lt;div style=&quot;height: 2px&quot;&gt;&lt;/div&gt;" style="verticalAlign=top;align=left;overflow=fill;fontSize=12;fontFamily=Helvetica;html=1;" parent="1" vertex="1">
          <mxGeometry x="290" y="-460" width="240" height="50" as="geometry" />
        </mxCell>
        <mxCell id="7-aJ9GHmP8vsTWekd-Si-21" value="&lt;p style=&quot;margin: 0px ; margin-top: 4px ; text-align: center&quot;&gt;&lt;b&gt;Subprogram Type&lt;/b&gt;&lt;/p&gt;&lt;hr size=&quot;1&quot;&gt;&lt;div style=&quot;height: 2px&quot;&gt;&lt;/div&gt;" style="verticalAlign=top;align=left;overflow=fill;fontSize=12;fontFamily=Helvetica;html=1;" parent="1" vertex="1">
          <mxGeometry x="850" y="-460" width="240" height="50" as="geometry" />
        </mxCell>
        <mxCell id="7-aJ9GHmP8vsTWekd-Si-22" value="&lt;p style=&quot;margin: 0px ; margin-top: 4px ; text-align: center&quot;&gt;&lt;b&gt;Subprogram Group Type&lt;/b&gt;&lt;/p&gt;&lt;hr size=&quot;1&quot;&gt;&lt;div style=&quot;height: 2px&quot;&gt;&lt;/div&gt;" style="verticalAlign=top;align=left;overflow=fill;fontSize=12;fontFamily=Helvetica;html=1;" parent="1" vertex="1">
          <mxGeometry x="290" y="-240" width="240" height="50" as="geometry" />
        </mxCell>
        <mxCell id="7-aJ9GHmP8vsTWekd-Si-23" value="&lt;p style=&quot;margin: 0px ; margin-top: 4px ; text-align: center&quot;&gt;&lt;b&gt;System Type&lt;/b&gt;&lt;/p&gt;&lt;hr size=&quot;1&quot;&gt;&lt;div style=&quot;height: 2px&quot;&gt;&lt;/div&gt;" style="verticalAlign=top;align=left;overflow=fill;fontSize=12;fontFamily=Helvetica;html=1;" parent="1" vertex="1">
          <mxGeometry x="10" y="-570" width="240" height="50" as="geometry" />
        </mxCell>
        <mxCell id="7-aJ9GHmP8vsTWekd-Si-24" value="&lt;p style=&quot;margin: 0px ; margin-top: 4px ; text-align: center&quot;&gt;&lt;b&gt;Thread Type&lt;/b&gt;&lt;/p&gt;&lt;hr size=&quot;1&quot;&gt;&lt;div style=&quot;height: 2px&quot;&gt;&lt;/div&gt;" style="verticalAlign=top;align=left;overflow=fill;fontSize=12;fontFamily=Helvetica;html=1;" parent="1" vertex="1">
          <mxGeometry x="290" y="-350" width="240" height="50" as="geometry" />
        </mxCell>
        <mxCell id="7-aJ9GHmP8vsTWekd-Si-25" value="&lt;p style=&quot;margin: 0px ; margin-top: 4px ; text-align: center&quot;&gt;&lt;b&gt;Thread Group Type&lt;/b&gt;&lt;/p&gt;&lt;hr size=&quot;1&quot;&gt;&lt;div style=&quot;height: 2px&quot;&gt;&lt;/div&gt;" style="verticalAlign=top;align=left;overflow=fill;fontSize=12;fontFamily=Helvetica;html=1;" parent="1" vertex="1">
          <mxGeometry x="850" y="-350" width="240" height="50" as="geometry" />
        </mxCell>
        <mxCell id="7-aJ9GHmP8vsTWekd-Si-26" value="&lt;p style=&quot;margin: 0px ; margin-top: 4px ; text-align: center&quot;&gt;&lt;b&gt;Virtual Bus Type&lt;/b&gt;&lt;/p&gt;&lt;hr size=&quot;1&quot;&gt;&lt;div style=&quot;height: 2px&quot;&gt;&lt;/div&gt;" style="verticalAlign=top;align=left;overflow=fill;fontSize=12;fontFamily=Helvetica;html=1;" parent="1" vertex="1">
          <mxGeometry x="10" y="-240" width="240" height="50" as="geometry" />
        </mxCell>
        <mxCell id="7-aJ9GHmP8vsTWekd-Si-27" value="&lt;p style=&quot;margin: 0px ; margin-top: 4px ; text-align: center&quot;&gt;&lt;b&gt;Virtual Processor Type&lt;/b&gt;&lt;/p&gt;&lt;hr size=&quot;1&quot;&gt;&lt;div style=&quot;height: 2px&quot;&gt;&lt;/div&gt;" style="verticalAlign=top;align=left;overflow=fill;fontSize=12;fontFamily=Helvetica;html=1;" parent="1" vertex="1">
          <mxGeometry x="850" y="-240" width="240" height="50" as="geometry" />
        </mxCell>
        <mxCell id="7-aJ9GHmP8vsTWekd-Si-29" value="&lt;p style=&quot;margin: 0px ; margin-top: 4px ; text-align: center&quot;&gt;&lt;b&gt;Dependency&lt;/b&gt;&lt;/p&gt;&lt;hr size=&quot;1&quot;&gt;&lt;div style=&quot;height: 2px&quot;&gt;&lt;/div&gt;" style="verticalAlign=top;align=left;overflow=fill;fontSize=12;fontFamily=Helvetica;html=1;fillColor=#dae8fc;strokeColor=#6c8ebf;" parent="1" vertex="1">
          <mxGeometry x="1631" y="-350" width="240" height="50" as="geometry" />
        </mxCell>
        <mxCell id="7-aJ9GHmP8vsTWekd-Si-30" value="&lt;p style=&quot;margin: 0px ; margin-top: 4px ; text-align: center&quot;&gt;&lt;b&gt;Access Connection&lt;/b&gt;&lt;/p&gt;&lt;hr size=&quot;1&quot;&gt;&lt;div style=&quot;height: 2px&quot;&gt;&lt;/div&gt;" style="verticalAlign=top;align=left;overflow=fill;fontSize=12;fontFamily=Helvetica;html=1;" parent="1" vertex="1">
          <mxGeometry x="1911" y="-350" width="240" height="50" as="geometry" />
        </mxCell>
        <mxCell id="7-aJ9GHmP8vsTWekd-Si-31" value="&lt;p style=&quot;margin: 0px ; margin-top: 4px ; text-align: center&quot;&gt;&lt;b&gt;Feature Connection&lt;/b&gt;&lt;/p&gt;&lt;hr size=&quot;1&quot;&gt;&lt;div style=&quot;height: 2px&quot;&gt;&lt;/div&gt;" style="verticalAlign=top;align=left;overflow=fill;fontSize=12;fontFamily=Helvetica;html=1;" parent="1" vertex="1">
          <mxGeometry x="1351" y="-350" width="240" height="50" as="geometry" />
        </mxCell>
        <mxCell id="7-aJ9GHmP8vsTWekd-Si-32" value="&lt;p style=&quot;margin: 0px ; margin-top: 4px ; text-align: center&quot;&gt;&lt;b&gt;Feature Group Connection&lt;/b&gt;&lt;/p&gt;&lt;hr size=&quot;1&quot;&gt;&lt;div style=&quot;height: 2px&quot;&gt;&lt;/div&gt;" style="verticalAlign=top;align=left;overflow=fill;fontSize=12;fontFamily=Helvetica;html=1;" parent="1" vertex="1">
          <mxGeometry x="1491" y="-460" width="240" height="50" as="geometry" />
        </mxCell>
        <mxCell id="7-aJ9GHmP8vsTWekd-Si-34" value="&lt;p style=&quot;margin: 0px ; margin-top: 4px ; text-align: center&quot;&gt;&lt;b&gt;Parameter Connection&lt;/b&gt;&lt;/p&gt;&lt;hr size=&quot;1&quot;&gt;&lt;div style=&quot;height: 2px&quot;&gt;&lt;/div&gt;" style="verticalAlign=top;align=left;overflow=fill;fontSize=12;fontFamily=Helvetica;html=1;" parent="1" vertex="1">
          <mxGeometry x="1771" y="-460" width="240" height="50" as="geometry" />
        </mxCell>
        <mxCell id="7-aJ9GHmP8vsTWekd-Si-35" value="&lt;p style=&quot;margin: 0px ; margin-top: 4px ; text-align: center&quot;&gt;&lt;b&gt;Port Connection&lt;/b&gt;&lt;/p&gt;&lt;hr size=&quot;1&quot;&gt;&lt;div style=&quot;height: 2px&quot;&gt;&lt;/div&gt;" style="verticalAlign=top;align=left;overflow=fill;fontSize=12;fontFamily=Helvetica;html=1;" parent="1" vertex="1">
          <mxGeometry x="1491" y="-240" width="240" height="50" as="geometry" />
        </mxCell>
        <mxCell id="7-aJ9GHmP8vsTWekd-Si-36" value="&lt;p style=&quot;margin: 0px ; margin-top: 4px ; text-align: center&quot;&gt;&lt;b&gt;Connection&lt;/b&gt;&lt;/p&gt;&lt;hr size=&quot;1&quot;&gt;&lt;div style=&quot;height: 2px&quot;&gt;&lt;/div&gt;" style="verticalAlign=top;align=left;overflow=fill;fontSize=12;fontFamily=Helvetica;html=1;" parent="1" vertex="1">
          <mxGeometry x="1771" y="-240" width="240" height="50" as="geometry" />
        </mxCell>
        <mxCell id="7-aJ9GHmP8vsTWekd-Si-37" value="&lt;p style=&quot;margin: 0px ; margin-top: 4px ; text-align: center&quot;&gt;&lt;b&gt;Port&lt;/b&gt;&lt;/p&gt;&lt;hr size=&quot;1&quot;&gt;&lt;div style=&quot;height: 2px&quot;&gt;&lt;/div&gt;" style="verticalAlign=top;align=left;overflow=fill;fontSize=12;fontFamily=Helvetica;html=1;fillColor=#dae8fc;strokeColor=#6c8ebf;" parent="1" vertex="1">
          <mxGeometry x="1630" y="-1040" width="240" height="50" as="geometry" />
        </mxCell>
        <mxCell id="7-aJ9GHmP8vsTWekd-Si-38" value="&lt;p style=&quot;margin: 0px ; margin-top: 4px ; text-align: center&quot;&gt;&lt;b&gt;Bus Access&lt;/b&gt;&lt;/p&gt;&lt;hr size=&quot;1&quot;&gt;&lt;div style=&quot;height: 2px&quot;&gt;&lt;/div&gt;" style="verticalAlign=top;align=left;overflow=fill;fontSize=12;fontFamily=Helvetica;html=1;" parent="1" vertex="1">
          <mxGeometry x="1490" y="-710" width="240" height="50" as="geometry" />
        </mxCell>
        <mxCell id="7-aJ9GHmP8vsTWekd-Si-39" value="&lt;p style=&quot;margin: 0px ; margin-top: 4px ; text-align: center&quot;&gt;&lt;b&gt;Abstract Feature&lt;/b&gt;&lt;/p&gt;&lt;hr size=&quot;1&quot;&gt;&lt;div style=&quot;height: 2px&quot;&gt;&lt;/div&gt;" style="verticalAlign=top;align=left;overflow=fill;fontSize=12;fontFamily=Helvetica;html=1;" parent="1" vertex="1">
          <mxGeometry x="1210" y="-710" width="240" height="50" as="geometry" />
        </mxCell>
        <mxCell id="7-aJ9GHmP8vsTWekd-Si-40" value="&lt;p style=&quot;margin: 0px ; margin-top: 4px ; text-align: center&quot;&gt;&lt;b&gt;Data Access&lt;/b&gt;&lt;/p&gt;&lt;hr size=&quot;1&quot;&gt;&lt;div style=&quot;height: 2px&quot;&gt;&lt;/div&gt;" style="verticalAlign=top;align=left;overflow=fill;fontSize=12;fontFamily=Helvetica;html=1;" parent="1" vertex="1">
          <mxGeometry x="1770" y="-710" width="240" height="50" as="geometry" />
        </mxCell>
        <mxCell id="7-aJ9GHmP8vsTWekd-Si-41" value="&lt;p style=&quot;margin: 0px ; margin-top: 4px ; text-align: center&quot;&gt;&lt;b&gt;Data Port&lt;/b&gt;&lt;/p&gt;&lt;hr size=&quot;1&quot;&gt;&lt;div style=&quot;height: 2px&quot;&gt;&lt;/div&gt;" style="verticalAlign=top;align=left;overflow=fill;fontSize=12;fontFamily=Helvetica;html=1;" parent="1" vertex="1">
          <mxGeometry x="2050" y="-710" width="240" height="50" as="geometry" />
        </mxCell>
        <mxCell id="7-aJ9GHmP8vsTWekd-Si-42" value="&lt;p style=&quot;margin: 0px ; margin-top: 4px ; text-align: center&quot;&gt;&lt;b&gt;Event Data Port&lt;/b&gt;&lt;/p&gt;&lt;hr size=&quot;1&quot;&gt;&lt;div style=&quot;height: 2px&quot;&gt;&lt;/div&gt;" style="verticalAlign=top;align=left;overflow=fill;fontSize=12;fontFamily=Helvetica;html=1;" parent="1" vertex="1">
          <mxGeometry x="1491" y="-1150" width="240" height="50" as="geometry" />
        </mxCell>
        <mxCell id="7-aJ9GHmP8vsTWekd-Si-43" value="&lt;p style=&quot;margin: 0px ; margin-top: 4px ; text-align: center&quot;&gt;&lt;b&gt;Event Port&lt;/b&gt;&lt;/p&gt;&lt;hr size=&quot;1&quot;&gt;&lt;div style=&quot;height: 2px&quot;&gt;&lt;/div&gt;" style="verticalAlign=top;align=left;overflow=fill;fontSize=12;fontFamily=Helvetica;html=1;" parent="1" vertex="1">
          <mxGeometry x="1771" y="-1150" width="240" height="50" as="geometry" />
        </mxCell>
        <mxCell id="7-aJ9GHmP8vsTWekd-Si-44" value="&lt;p style=&quot;margin: 0px ; margin-top: 4px ; text-align: center&quot;&gt;&lt;b&gt;Feature Group&lt;/b&gt;&lt;/p&gt;&lt;hr size=&quot;1&quot;&gt;&lt;div style=&quot;height: 2px&quot;&gt;&lt;/div&gt;" style="verticalAlign=top;align=left;overflow=fill;fontSize=12;fontFamily=Helvetica;html=1;" parent="1" vertex="1">
          <mxGeometry x="1351" y="-930" width="240" height="50" as="geometry" />
        </mxCell>
        <mxCell id="7-aJ9GHmP8vsTWekd-Si-45" value="&lt;p style=&quot;margin: 0px ; margin-top: 4px ; text-align: center&quot;&gt;&lt;b&gt;Parameter&lt;/b&gt;&lt;/p&gt;&lt;hr size=&quot;1&quot;&gt;&lt;div style=&quot;height: 2px&quot;&gt;&lt;/div&gt;" style="verticalAlign=top;align=left;overflow=fill;fontSize=12;fontFamily=Helvetica;html=1;" parent="1" vertex="1">
          <mxGeometry x="1631" y="-930" width="240" height="50" as="geometry" />
        </mxCell>
        <mxCell id="7-aJ9GHmP8vsTWekd-Si-46" value="&lt;p style=&quot;margin: 0px ; margin-top: 4px ; text-align: center&quot;&gt;&lt;b&gt;Subprogram Access&lt;/b&gt;&lt;/p&gt;&lt;hr size=&quot;1&quot;&gt;&lt;div style=&quot;height: 2px&quot;&gt;&lt;/div&gt;" style="verticalAlign=top;align=left;overflow=fill;fontSize=12;fontFamily=Helvetica;html=1;" parent="1" vertex="1">
          <mxGeometry x="1491" y="-820" width="240" height="50" as="geometry" />
        </mxCell>
        <mxCell id="7-aJ9GHmP8vsTWekd-Si-47" value="&lt;p style=&quot;margin: 0px ; margin-top: 4px ; text-align: center&quot;&gt;&lt;b&gt;Subprogram Group Access&lt;/b&gt;&lt;/p&gt;&lt;hr size=&quot;1&quot;&gt;&lt;div style=&quot;height: 2px&quot;&gt;&lt;/div&gt;" style="verticalAlign=top;align=left;overflow=fill;fontSize=12;fontFamily=Helvetica;html=1;" parent="1" vertex="1">
          <mxGeometry x="1211" y="-820" width="240" height="50" as="geometry" />
        </mxCell>
        <mxCell id="7-aJ9GHmP8vsTWekd-Si-48" value="&lt;p style=&quot;margin: 0px ; margin-top: 4px ; text-align: center&quot;&gt;&lt;b&gt;Event Source&lt;/b&gt;&lt;br&gt;&lt;/p&gt;&lt;hr size=&quot;1&quot;&gt;&lt;div style=&quot;height: 2px&quot;&gt;&lt;/div&gt;" style="verticalAlign=top;align=left;overflow=fill;fontSize=12;fontFamily=Helvetica;html=1;" parent="1" vertex="1">
          <mxGeometry x="1911" y="-930" width="240" height="50" as="geometry" />
        </mxCell>
        <mxCell id="7-aJ9GHmP8vsTWekd-Si-49" value="&lt;p style=&quot;margin: 0px ; margin-top: 4px ; text-align: center&quot;&gt;&lt;b&gt;Event Data Source&lt;/b&gt;&lt;br&gt;&lt;/p&gt;&lt;hr size=&quot;1&quot;&gt;&lt;div style=&quot;height: 2px&quot;&gt;&lt;/div&gt;" style="verticalAlign=top;align=left;overflow=fill;fontSize=12;fontFamily=Helvetica;html=1;" parent="1" vertex="1">
          <mxGeometry x="2051" y="-820" width="240" height="50" as="geometry" />
        </mxCell>
        <mxCell id="7-aJ9GHmP8vsTWekd-Si-50" value="&lt;p style=&quot;margin: 0px ; margin-top: 4px ; text-align: center&quot;&gt;&lt;b&gt;Subprogram Proxy&lt;/b&gt;&lt;/p&gt;&lt;hr size=&quot;1&quot;&gt;&lt;div style=&quot;height: 2px&quot;&gt;&lt;/div&gt;" style="verticalAlign=top;align=left;overflow=fill;fontSize=12;fontFamily=Helvetica;html=1;" parent="1" vertex="1">
          <mxGeometry x="1351" y="-1040" width="240" height="50" as="geometry" />
        </mxCell>
        <mxCell id="7-aJ9GHmP8vsTWekd-Si-51" value="&lt;p style=&quot;margin: 0px ; margin-top: 4px ; text-align: center&quot;&gt;&lt;b&gt;Port Proxy&lt;/b&gt;&lt;/p&gt;&lt;hr size=&quot;1&quot;&gt;&lt;div style=&quot;height: 2px&quot;&gt;&lt;/div&gt;" style="verticalAlign=top;align=left;overflow=fill;fontSize=12;fontFamily=Helvetica;html=1;" parent="1" vertex="1">
          <mxGeometry x="1771" y="-820" width="240" height="50" as="geometry" />
        </mxCell>
        <mxCell id="7-aJ9GHmP8vsTWekd-Si-52" value="&lt;p style=&quot;margin: 0px ; margin-top: 4px ; text-align: center&quot;&gt;&lt;b&gt;Mode&lt;/b&gt;&lt;/p&gt;&lt;hr size=&quot;1&quot;&gt;&lt;div style=&quot;height: 2px&quot;&gt;&lt;/div&gt;" style="verticalAlign=top;align=left;overflow=fill;fontSize=12;fontFamily=Helvetica;html=1;" parent="1" vertex="1">
          <mxGeometry x="-981" y="-570" width="240" height="50" as="geometry" />
        </mxCell>
        <mxCell id="7-aJ9GHmP8vsTWekd-Si-53" value="&lt;p style=&quot;margin: 0px ; margin-top: 4px ; text-align: center&quot;&gt;&lt;b&gt;Abstract Subcomponent&lt;/b&gt;&lt;/p&gt;&lt;hr size=&quot;1&quot;&gt;&lt;div style=&quot;height: 2px&quot;&gt;&lt;/div&gt;" style="verticalAlign=top;align=left;overflow=fill;fontSize=12;fontFamily=Helvetica;html=1;" parent="1" vertex="1">
          <mxGeometry x="-1119" y="-240" width="240" height="50" as="geometry" />
        </mxCell>
        <mxCell id="7-aJ9GHmP8vsTWekd-Si-54" value="&lt;p style=&quot;margin: 0px ; margin-top: 4px ; text-align: center&quot;&gt;&lt;b&gt;Bus Subcomponent&lt;/b&gt;&lt;/p&gt;&lt;hr size=&quot;1&quot;&gt;&lt;div style=&quot;height: 2px&quot;&gt;&lt;/div&gt;" style="verticalAlign=top;align=left;overflow=fill;fontSize=12;fontFamily=Helvetica;html=1;" parent="1" vertex="1">
          <mxGeometry x="-421" y="-350" width="240" height="50" as="geometry" />
        </mxCell>
        <mxCell id="7-aJ9GHmP8vsTWekd-Si-55" value="&lt;p style=&quot;margin: 0px ; margin-top: 4px ; text-align: center&quot;&gt;&lt;b&gt;Data Subcomponent&lt;/b&gt;&lt;/p&gt;&lt;hr size=&quot;1&quot;&gt;&lt;div style=&quot;height: 2px&quot;&gt;&lt;/div&gt;" style="verticalAlign=top;align=left;overflow=fill;fontSize=12;fontFamily=Helvetica;html=1;" parent="1" vertex="1">
          <mxGeometry x="-701" y="-570" width="240" height="50" as="geometry" />
        </mxCell>
        <mxCell id="7-aJ9GHmP8vsTWekd-Si-56" value="&lt;p style=&quot;margin: 0px ; margin-top: 4px ; text-align: center&quot;&gt;&lt;b&gt;Device Subcomponent&lt;/b&gt;&lt;/p&gt;&lt;hr size=&quot;1&quot;&gt;&lt;div style=&quot;height: 2px&quot;&gt;&lt;/div&gt;" style="verticalAlign=top;align=left;overflow=fill;fontSize=12;fontFamily=Helvetica;html=1;" parent="1" vertex="1">
          <mxGeometry x="-841" y="-660" width="240" height="50" as="geometry" />
        </mxCell>
        <mxCell id="7-aJ9GHmP8vsTWekd-Si-57" value="&lt;p style=&quot;margin: 0px ; margin-top: 4px ; text-align: center&quot;&gt;&lt;b&gt;Memory Subcomponent&lt;/b&gt;&lt;/p&gt;&lt;hr size=&quot;1&quot;&gt;&lt;div style=&quot;height: 2px&quot;&gt;&lt;/div&gt;" style="verticalAlign=top;align=left;overflow=fill;fontSize=12;fontFamily=Helvetica;html=1;" parent="1" vertex="1">
          <mxGeometry x="-280" y="-460" width="240" height="50" as="geometry" />
        </mxCell>
        <mxCell id="7-aJ9GHmP8vsTWekd-Si-58" value="&lt;p style=&quot;margin: 0px ; margin-top: 4px ; text-align: center&quot;&gt;&lt;b&gt;Process Subcomponent&lt;/b&gt;&lt;/p&gt;&lt;hr size=&quot;1&quot;&gt;&lt;div style=&quot;height: 2px&quot;&gt;&lt;/div&gt;" style="verticalAlign=top;align=left;overflow=fill;fontSize=12;fontFamily=Helvetica;html=1;" parent="1" vertex="1">
          <mxGeometry x="-421" y="-570" width="240" height="50" as="geometry" />
        </mxCell>
        <mxCell id="7-aJ9GHmP8vsTWekd-Si-59" value="&lt;p style=&quot;margin: 0px ; margin-top: 4px ; text-align: center&quot;&gt;&lt;b&gt;Processer Subcomponent&lt;/b&gt;&lt;/p&gt;&lt;hr size=&quot;1&quot;&gt;&lt;div style=&quot;height: 2px&quot;&gt;&lt;/div&gt;" style="verticalAlign=top;align=left;overflow=fill;fontSize=12;fontFamily=Helvetica;html=1;" parent="1" vertex="1">
          <mxGeometry x="-839" y="-240" width="240" height="50" as="geometry" />
        </mxCell>
        <mxCell id="7-aJ9GHmP8vsTWekd-Si-60" value="&lt;p style=&quot;margin: 0px ; margin-top: 4px ; text-align: center&quot;&gt;&lt;b&gt;Subprogram Subcomponent&lt;/b&gt;&lt;/p&gt;&lt;hr size=&quot;1&quot;&gt;&lt;div style=&quot;height: 2px&quot;&gt;&lt;/div&gt;" style="verticalAlign=top;align=left;overflow=fill;fontSize=12;fontFamily=Helvetica;html=1;" parent="1" vertex="1">
          <mxGeometry x="-559" y="-240" width="240" height="50" as="geometry" />
        </mxCell>
        <mxCell id="7-aJ9GHmP8vsTWekd-Si-61" value="&lt;p style=&quot;margin: 0px ; margin-top: 4px ; text-align: center&quot;&gt;&lt;b&gt;Subprogram Group Subcomponent&lt;/b&gt;&lt;/p&gt;&lt;hr size=&quot;1&quot;&gt;&lt;div style=&quot;height: 2px&quot;&gt;&lt;/div&gt;" style="verticalAlign=top;align=left;overflow=fill;fontSize=12;fontFamily=Helvetica;html=1;" parent="1" vertex="1">
          <mxGeometry x="-981" y="-350" width="240" height="50" as="geometry" />
        </mxCell>
        <mxCell id="7-aJ9GHmP8vsTWekd-Si-62" value="&lt;p style=&quot;margin: 0px ; margin-top: 4px ; text-align: center&quot;&gt;&lt;b&gt;System Subcomponent&lt;/b&gt;&lt;/p&gt;&lt;hr size=&quot;1&quot;&gt;&lt;div style=&quot;height: 2px&quot;&gt;&lt;/div&gt;" style="verticalAlign=top;align=left;overflow=fill;fontSize=12;fontFamily=Helvetica;html=1;" parent="1" vertex="1">
          <mxGeometry x="-561" y="-660" width="240" height="50" as="geometry" />
        </mxCell>
        <mxCell id="7-aJ9GHmP8vsTWekd-Si-63" value="&lt;p style=&quot;margin: 0px ; margin-top: 4px ; text-align: center&quot;&gt;&lt;b&gt;Thread Subcomponent&lt;/b&gt;&lt;/p&gt;&lt;hr size=&quot;1&quot;&gt;&lt;div style=&quot;height: 2px&quot;&gt;&lt;/div&gt;" style="verticalAlign=top;align=left;overflow=fill;fontSize=12;fontFamily=Helvetica;html=1;" parent="1" vertex="1">
          <mxGeometry x="-279" y="-240" width="240" height="50" as="geometry" />
        </mxCell>
        <mxCell id="7-aJ9GHmP8vsTWekd-Si-64" value="&lt;p style=&quot;margin: 0px ; margin-top: 4px ; text-align: center&quot;&gt;&lt;b&gt;Thread Group Subcomponent&lt;/b&gt;&lt;/p&gt;&lt;hr size=&quot;1&quot;&gt;&lt;div style=&quot;height: 2px&quot;&gt;&lt;/div&gt;" style="verticalAlign=top;align=left;overflow=fill;fontSize=12;fontFamily=Helvetica;html=1;" parent="1" vertex="1">
          <mxGeometry x="-1120" y="-460" width="240" height="50" as="geometry" />
        </mxCell>
        <mxCell id="7-aJ9GHmP8vsTWekd-Si-65" value="&lt;p style=&quot;margin: 0px ; margin-top: 4px ; text-align: center&quot;&gt;&lt;b&gt;Virtual Bus Subcomponent&lt;/b&gt;&lt;/p&gt;&lt;hr size=&quot;1&quot;&gt;&lt;div style=&quot;height: 2px&quot;&gt;&lt;/div&gt;" style="verticalAlign=top;align=left;overflow=fill;fontSize=12;fontFamily=Helvetica;html=1;" parent="1" vertex="1">
          <mxGeometry x="-840" y="-460" width="240" height="50" as="geometry" />
        </mxCell>
        <mxCell id="7-aJ9GHmP8vsTWekd-Si-66" value="&lt;p style=&quot;margin: 0px ; margin-top: 4px ; text-align: center&quot;&gt;&lt;b&gt;Virtual&amp;nbsp;Processor&amp;nbsp;Subcomponent&lt;/b&gt;&lt;/p&gt;&lt;hr size=&quot;1&quot;&gt;&lt;div style=&quot;height: 2px&quot;&gt;&lt;/div&gt;" style="verticalAlign=top;align=left;overflow=fill;fontSize=12;fontFamily=Helvetica;html=1;" parent="1" vertex="1">
          <mxGeometry x="-560" y="-460" width="240" height="50" as="geometry" />
        </mxCell>
        <mxCell id="7-aJ9GHmP8vsTWekd-Si-67" value="&lt;p style=&quot;margin: 0px ; margin-top: 4px ; text-align: center&quot;&gt;&lt;b&gt;Flow Path&lt;/b&gt;&lt;/p&gt;&lt;hr size=&quot;1&quot;&gt;&lt;div style=&quot;height: 2px&quot;&gt;&lt;/div&gt;" style="verticalAlign=top;align=left;overflow=fill;fontSize=12;fontFamily=Helvetica;html=1;" parent="1" vertex="1">
          <mxGeometry x="1211" y="-240" width="240" height="50" as="geometry" />
        </mxCell>
        <mxCell id="7-aJ9GHmP8vsTWekd-Si-68" value="&lt;p style=&quot;margin: 0px ; margin-top: 4px ; text-align: center&quot;&gt;&lt;b&gt;Flow Sink&lt;/b&gt;&lt;/p&gt;&lt;hr size=&quot;1&quot;&gt;&lt;div style=&quot;height: 2px&quot;&gt;&lt;/div&gt;" style="verticalAlign=top;align=left;overflow=fill;fontSize=12;fontFamily=Helvetica;html=1;" parent="1" vertex="1">
          <mxGeometry x="570" y="-350" width="240" height="50" as="geometry" />
        </mxCell>
        <mxCell id="7-aJ9GHmP8vsTWekd-Si-69" value="&lt;p style=&quot;margin: 0px ; margin-top: 4px ; text-align: center&quot;&gt;&lt;b&gt;Flow Source&lt;/b&gt;&lt;/p&gt;&lt;hr size=&quot;1&quot;&gt;&lt;div style=&quot;height: 2px&quot;&gt;&lt;/div&gt;" style="verticalAlign=top;align=left;overflow=fill;fontSize=12;fontFamily=Helvetica;html=1;" parent="1" vertex="1">
          <mxGeometry x="570" y="-240" width="240" height="50" as="geometry" />
        </mxCell>
        <mxCell id="7-aJ9GHmP8vsTWekd-Si-70" value="&lt;p style=&quot;margin: 0px ; margin-top: 4px ; text-align: center&quot;&gt;&lt;b&gt;End To End Flow&lt;/b&gt;&lt;/p&gt;&lt;hr size=&quot;1&quot;&gt;&lt;div style=&quot;height: 2px&quot;&gt;&lt;/div&gt;" style="verticalAlign=top;align=left;overflow=fill;fontSize=12;fontFamily=Helvetica;html=1;" parent="1" vertex="1">
          <mxGeometry x="10" y="-350" width="240" height="50" as="geometry" />
        </mxCell>
        <mxCell id="7-aJ9GHmP8vsTWekd-Si-71" value="&lt;p style=&quot;margin: 0px ; margin-top: 4px ; text-align: center&quot;&gt;&lt;b&gt;StaticDiagram&lt;/b&gt;&lt;/p&gt;&lt;hr size=&quot;1&quot;&gt;&lt;div style=&quot;height: 2px&quot;&gt;&lt;/div&gt;" style="verticalAlign=top;align=left;overflow=fill;fontSize=12;fontFamily=Helvetica;html=1;fillColor=#dae8fc;strokeColor=#6c8ebf;" parent="1" vertex="1">
          <mxGeometry x="-720" y="-1060" width="240" height="50" as="geometry" />
        </mxCell>
        <mxCell id="7-aJ9GHmP8vsTWekd-Si-72" value="&lt;p style=&quot;margin: 0px ; margin-top: 4px ; text-align: center&quot;&gt;&lt;b&gt;DataFlowDiagram&lt;/b&gt;&lt;/p&gt;&lt;hr size=&quot;1&quot;&gt;&lt;div style=&quot;height: 2px&quot;&gt;&lt;/div&gt;" style="verticalAlign=top;align=left;overflow=fill;fontSize=12;fontFamily=Helvetica;html=1;" parent="1" vertex="1">
          <mxGeometry x="-720" y="-930" width="240" height="50" as="geometry" />
        </mxCell>
        <mxCell id="7-aJ9GHmP8vsTWekd-Si-73" value="&lt;p style=&quot;margin: 0px ; margin-top: 4px ; text-align: center&quot;&gt;&lt;b&gt;Abstract Implementation&lt;/b&gt;&lt;/p&gt;&lt;hr size=&quot;1&quot;&gt;&lt;div style=&quot;height: 2px&quot;&gt;&lt;/div&gt;" style="verticalAlign=top;align=left;overflow=fill;fontSize=12;fontFamily=Helvetica;html=1;" parent="1" vertex="1">
          <mxGeometry x="10" y="-810" width="240" height="50" as="geometry" />
        </mxCell>
        <mxCell id="7-aJ9GHmP8vsTWekd-Si-74" value="&lt;p style=&quot;margin: 0px ; margin-top: 4px ; text-align: center&quot;&gt;&lt;b&gt;Bus Implementation&lt;/b&gt;&lt;/p&gt;&lt;hr size=&quot;1&quot;&gt;&lt;div style=&quot;height: 2px&quot;&gt;&lt;/div&gt;" style="verticalAlign=top;align=left;overflow=fill;fontSize=12;fontFamily=Helvetica;html=1;" parent="1" vertex="1">
          <mxGeometry x="288" y="-810" width="240" height="50" as="geometry" />
        </mxCell>
        <mxCell id="7-aJ9GHmP8vsTWekd-Si-75" value="&lt;p style=&quot;margin: 0px ; margin-top: 4px ; text-align: center&quot;&gt;&lt;b&gt;Data Implementation&lt;/b&gt;&lt;/p&gt;&lt;hr size=&quot;1&quot;&gt;&lt;div style=&quot;height: 2px&quot;&gt;&lt;/div&gt;" style="verticalAlign=top;align=left;overflow=fill;fontSize=12;fontFamily=Helvetica;html=1;" parent="1" vertex="1">
          <mxGeometry x="570" y="-810" width="240" height="50" as="geometry" />
        </mxCell>
        <mxCell id="7-aJ9GHmP8vsTWekd-Si-76" value="&lt;p style=&quot;margin: 0px ; margin-top: 4px ; text-align: center&quot;&gt;&lt;b&gt;Device Implementation&lt;/b&gt;&lt;/p&gt;&lt;hr size=&quot;1&quot;&gt;&lt;div style=&quot;height: 2px&quot;&gt;&lt;/div&gt;" style="verticalAlign=top;align=left;overflow=fill;fontSize=12;fontFamily=Helvetica;html=1;" parent="1" vertex="1">
          <mxGeometry x="850" y="-810" width="240" height="50" as="geometry" />
        </mxCell>
        <mxCell id="7-aJ9GHmP8vsTWekd-Si-77" value="&lt;p style=&quot;margin: 0px ; margin-top: 4px ; text-align: center&quot;&gt;&lt;b&gt;Memory Implementation&lt;/b&gt;&lt;/p&gt;&lt;hr size=&quot;1&quot;&gt;&lt;div style=&quot;height: 2px&quot;&gt;&lt;/div&gt;" style="verticalAlign=top;align=left;overflow=fill;fontSize=12;fontFamily=Helvetica;html=1;" parent="1" vertex="1">
          <mxGeometry x="570" y="-1140" width="240" height="50" as="geometry" />
        </mxCell>
        <mxCell id="7-aJ9GHmP8vsTWekd-Si-78" value="&lt;p style=&quot;margin: 0px ; margin-top: 4px ; text-align: center&quot;&gt;&lt;b&gt;Process Implementation&lt;/b&gt;&lt;/p&gt;&lt;hr size=&quot;1&quot;&gt;&lt;div style=&quot;height: 2px&quot;&gt;&lt;/div&gt;" style="verticalAlign=top;align=left;overflow=fill;fontSize=12;fontFamily=Helvetica;html=1;" parent="1" vertex="1">
          <mxGeometry x="290" y="-1140" width="240" height="50" as="geometry" />
        </mxCell>
        <mxCell id="7-aJ9GHmP8vsTWekd-Si-79" value="&lt;p style=&quot;margin: 0px ; margin-top: 4px ; text-align: center&quot;&gt;&lt;b&gt;Processor Implementation&lt;/b&gt;&lt;/p&gt;&lt;hr size=&quot;1&quot;&gt;&lt;div style=&quot;height: 2px&quot;&gt;&lt;/div&gt;" style="verticalAlign=top;align=left;overflow=fill;fontSize=12;fontFamily=Helvetica;html=1;" parent="1" vertex="1">
          <mxGeometry x="850" y="-1030" width="240" height="50" as="geometry" />
        </mxCell>
        <mxCell id="7-aJ9GHmP8vsTWekd-Si-80" value="&lt;p style=&quot;margin: 0px ; margin-top: 4px ; text-align: center&quot;&gt;&lt;b&gt;Subprogram Implementation&lt;/b&gt;&lt;/p&gt;&lt;hr size=&quot;1&quot;&gt;&lt;div style=&quot;height: 2px&quot;&gt;&lt;/div&gt;" style="verticalAlign=top;align=left;overflow=fill;fontSize=12;fontFamily=Helvetica;html=1;" parent="1" vertex="1">
          <mxGeometry x="710" y="-700" width="240" height="50" as="geometry" />
        </mxCell>
        <mxCell id="7-aJ9GHmP8vsTWekd-Si-81" value="&lt;p style=&quot;margin: 0px ; margin-top: 4px ; text-align: center&quot;&gt;&lt;b&gt;Subprogram Group Implementation&lt;/b&gt;&lt;/p&gt;&lt;hr size=&quot;1&quot;&gt;&lt;div style=&quot;height: 2px&quot;&gt;&lt;/div&gt;" style="verticalAlign=top;align=left;overflow=fill;fontSize=12;fontFamily=Helvetica;html=1;" parent="1" vertex="1">
          <mxGeometry x="10" y="-1030" width="240" height="50" as="geometry" />
        </mxCell>
        <mxCell id="7-aJ9GHmP8vsTWekd-Si-82" value="&lt;p style=&quot;margin: 0px ; margin-top: 4px ; text-align: center&quot;&gt;&lt;b&gt;System Implementation&lt;/b&gt;&lt;/p&gt;&lt;hr size=&quot;1&quot;&gt;&lt;div style=&quot;height: 2px&quot;&gt;&lt;/div&gt;" style="verticalAlign=top;align=left;overflow=fill;fontSize=12;fontFamily=Helvetica;html=1;" parent="1" vertex="1">
          <mxGeometry x="150" y="-920" width="240" height="50" as="geometry" />
        </mxCell>
        <mxCell id="7-aJ9GHmP8vsTWekd-Si-84" value="&lt;p style=&quot;margin: 0px ; margin-top: 4px ; text-align: center&quot;&gt;&lt;b&gt;Thread Group Implementation&lt;/b&gt;&lt;/p&gt;&lt;hr size=&quot;1&quot;&gt;&lt;div style=&quot;height: 2px&quot;&gt;&lt;/div&gt;" style="verticalAlign=top;align=left;overflow=fill;fontSize=12;fontFamily=Helvetica;html=1;" parent="1" vertex="1">
          <mxGeometry x="710" y="-920" width="240" height="50" as="geometry" />
        </mxCell>
        <mxCell id="7-aJ9GHmP8vsTWekd-Si-85" value="&lt;p style=&quot;margin: 0px ; margin-top: 4px ; text-align: center&quot;&gt;&lt;b&gt;Virtual Bus Implementation&lt;/b&gt;&lt;/p&gt;&lt;hr size=&quot;1&quot;&gt;&lt;div style=&quot;height: 2px&quot;&gt;&lt;/div&gt;" style="verticalAlign=top;align=left;overflow=fill;fontSize=12;fontFamily=Helvetica;html=1;" parent="1" vertex="1">
          <mxGeometry x="290" y="-1030" width="240" height="50" as="geometry" />
        </mxCell>
        <mxCell id="7-aJ9GHmP8vsTWekd-Si-86" value="&lt;p style=&quot;margin: 0px ; margin-top: 4px ; text-align: center&quot;&gt;&lt;b&gt;Virtual Processor Implementation&lt;/b&gt;&lt;/p&gt;&lt;hr size=&quot;1&quot;&gt;&lt;div style=&quot;height: 2px&quot;&gt;&lt;/div&gt;" style="verticalAlign=top;align=left;overflow=fill;fontSize=12;fontFamily=Helvetica;html=1;" parent="1" vertex="1">
          <mxGeometry x="570" y="-1030" width="240" height="50" as="geometry" />
        </mxCell>
        <mxCell id="7-aJ9GHmP8vsTWekd-Si-87" value="&lt;p style=&quot;margin: 0px ; margin-top: 4px ; text-align: center&quot;&gt;&lt;b&gt;Subprogram Call Sequence&lt;/b&gt;&lt;/p&gt;&lt;hr size=&quot;1&quot;&gt;&lt;div style=&quot;height: 2px&quot;&gt;&lt;/div&gt;" style="verticalAlign=top;align=left;overflow=fill;fontSize=12;fontFamily=Helvetica;html=1;" parent="1" vertex="1">
          <mxGeometry x="10" y="-1140" width="240" height="50" as="geometry" />
        </mxCell>
        <mxCell id="7-aJ9GHmP8vsTWekd-Si-88" value="&lt;p style=&quot;margin: 0px ; margin-top: 4px ; text-align: center&quot;&gt;&lt;b&gt;Subprogram Call&lt;/b&gt;&lt;/p&gt;&lt;hr size=&quot;1&quot;&gt;&lt;div style=&quot;height: 2px&quot;&gt;&lt;/div&gt;" style="verticalAlign=top;align=left;overflow=fill;fontSize=12;fontFamily=Helvetica;html=1;" parent="1" vertex="1">
          <mxGeometry x="1911" y="-1040" width="240" height="50" as="geometry" />
        </mxCell>
        <mxCell id="7-aJ9GHmP8vsTWekd-Si-89" value="&lt;p style=&quot;margin: 0px ; margin-top: 4px ; text-align: center&quot;&gt;&lt;b&gt;Mode Transition&lt;/b&gt;&lt;/p&gt;&lt;hr size=&quot;1&quot;&gt;&lt;div style=&quot;height: 2px&quot;&gt;&lt;/div&gt;" style="verticalAlign=top;align=left;overflow=fill;fontSize=12;fontFamily=Helvetica;html=1;" parent="1" vertex="1">
          <mxGeometry x="2051" y="-240" width="240" height="50" as="geometry" />
        </mxCell>
        <mxCell id="7-aJ9GHmP8vsTWekd-Si-90" value="&lt;p style=&quot;margin: 0px ; margin-top: 4px ; text-align: center&quot;&gt;&lt;b&gt;BindableInstance&lt;/b&gt;&lt;/p&gt;&lt;hr size=&quot;1&quot;&gt;&lt;div style=&quot;height: 2px&quot;&gt;&lt;/div&gt;" style="verticalAlign=top;align=left;overflow=fill;fontSize=12;fontFamily=Helvetica;html=1;fillColor=#dae8fc;strokeColor=#6c8ebf;" parent="1" vertex="1">
          <mxGeometry x="-701" y="-350" width="240" height="50" as="geometry" />
        </mxCell>
        <mxCell id="7-aJ9GHmP8vsTWekd-Si-93" value="" style="endArrow=block;endSize=16;endFill=0;html=1;rounded=0;entryX=0.5;entryY=1;entryDx=0;entryDy=0;exitX=0.5;exitY=0;exitDx=0;exitDy=0;" parent="1" source="7-aJ9GHmP8vsTWekd-Si-72" target="7-aJ9GHmP8vsTWekd-Si-71" edge="1">
          <mxGeometry width="160" relative="1" as="geometry">
            <mxPoint x="-622" y="-930" as="sourcePoint" />
            <mxPoint x="-700" y="-1131" as="targetPoint" />
          </mxGeometry>
        </mxCell>
        <mxCell id="7-aJ9GHmP8vsTWekd-Si-121" value="&lt;p style=&quot;margin: 0px ; margin-top: 4px ; text-align: center&quot;&gt;&lt;b&gt;Class&lt;/b&gt;&lt;/p&gt;&lt;hr size=&quot;1&quot;&gt;&lt;div style=&quot;height: 2px&quot;&gt;&lt;/div&gt;" style="verticalAlign=top;align=left;overflow=fill;fontSize=12;fontFamily=Helvetica;html=1;" parent="1" vertex="1">
          <mxGeometry x="150" y="-700" width="240" height="50" as="geometry" />
        </mxCell>
        <mxCell id="u_I1hMYmUqtO-RztfyqY-8" value="" style="endArrow=block;endSize=16;endFill=0;html=1;rounded=0;entryX=0.5;entryY=1;entryDx=0;entryDy=0;" parent="1" target="7-aJ9GHmP8vsTWekd-Si-37" edge="1">
          <mxGeometry width="160" relative="1" as="geometry">
            <mxPoint x="1750" y="-930" as="sourcePoint" />
            <mxPoint x="1892" y="-760" as="targetPoint" />
          </mxGeometry>
        </mxCell>
        <mxCell id="u_I1hMYmUqtO-RztfyqY-9" value="" style="endArrow=block;endSize=16;endFill=0;html=1;rounded=0;entryX=0.5;entryY=1;entryDx=0;entryDy=0;exitX=0.5;exitY=0;exitDx=0;exitDy=0;" parent="1" source="7-aJ9GHmP8vsTWekd-Si-48" target="7-aJ9GHmP8vsTWekd-Si-37" edge="1">
          <mxGeometry width="160" relative="1" as="geometry">
            <mxPoint x="1732" y="-760" as="sourcePoint" />
            <mxPoint x="1892" y="-760" as="targetPoint" />
            <Array as="points">
              <mxPoint x="2031" y="-960" />
              <mxPoint x="1750" y="-960" />
            </Array>
          </mxGeometry>
        </mxCell>
        <mxCell id="u_I1hMYmUqtO-RztfyqY-12" value="" style="endArrow=block;endSize=16;endFill=0;html=1;rounded=0;entryX=0.5;entryY=1;entryDx=0;entryDy=0;exitX=0.5;exitY=0;exitDx=0;exitDy=0;" parent="1" source="7-aJ9GHmP8vsTWekd-Si-44" target="7-aJ9GHmP8vsTWekd-Si-37" edge="1">
          <mxGeometry width="160" relative="1" as="geometry">
            <mxPoint x="1732" y="-930" as="sourcePoint" />
            <mxPoint x="1892" y="-930" as="targetPoint" />
            <Array as="points">
              <mxPoint x="1471" y="-960" />
              <mxPoint x="1750" y="-960" />
            </Array>
          </mxGeometry>
        </mxCell>
        <mxCell id="u_I1hMYmUqtO-RztfyqY-17" value="" style="endArrow=block;endSize=16;endFill=0;html=1;rounded=0;entryX=0;entryY=0.5;entryDx=0;entryDy=0;exitX=1;exitY=0.5;exitDx=0;exitDy=0;" parent="1" source="7-aJ9GHmP8vsTWekd-Si-50" target="7-aJ9GHmP8vsTWekd-Si-37" edge="1">
          <mxGeometry width="160" relative="1" as="geometry">
            <mxPoint x="1464" y="-1060" as="sourcePoint" />
            <mxPoint x="1624" y="-1060" as="targetPoint" />
          </mxGeometry>
        </mxCell>
        <mxCell id="u_I1hMYmUqtO-RztfyqY-18" value="" style="endArrow=block;endSize=16;endFill=0;html=1;rounded=0;entryX=1;entryY=0.5;entryDx=0;entryDy=0;exitX=0;exitY=0.5;exitDx=0;exitDy=0;" parent="1" source="7-aJ9GHmP8vsTWekd-Si-88" target="7-aJ9GHmP8vsTWekd-Si-37" edge="1">
          <mxGeometry width="160" relative="1" as="geometry">
            <mxPoint x="1850" y="-1100" as="sourcePoint" />
            <mxPoint x="2010" y="-1100" as="targetPoint" />
          </mxGeometry>
        </mxCell>
        <mxCell id="zPEYEhv-8IWlSOsqQqBE-1" value="" style="endArrow=block;endSize=16;endFill=0;html=1;rounded=0;entryX=0.5;entryY=0;entryDx=0;entryDy=0;exitX=0.5;exitY=1;exitDx=0;exitDy=0;" parent="1" source="7-aJ9GHmP8vsTWekd-Si-74" target="7-aJ9GHmP8vsTWekd-Si-12" edge="1">
          <mxGeometry width="160" relative="1" as="geometry">
            <mxPoint x="450" y="-630" as="sourcePoint" />
            <mxPoint x="610" y="-630" as="targetPoint" />
            <Array as="points">
              <mxPoint x="408" y="-730" />
              <mxPoint x="550" y="-730" />
            </Array>
          </mxGeometry>
        </mxCell>
        <mxCell id="XpqctZe5sNOAdH_IYwT--1" value="" style="endArrow=block;endSize=16;endFill=0;html=1;rounded=0;entryX=0.5;entryY=0;entryDx=0;entryDy=0;exitX=0.5;exitY=1;exitDx=0;exitDy=0;" parent="1" source="7-aJ9GHmP8vsTWekd-Si-34" target="7-aJ9GHmP8vsTWekd-Si-29" edge="1">
          <mxGeometry width="160" relative="1" as="geometry">
            <mxPoint x="1836" y="-280" as="sourcePoint" />
            <mxPoint x="1996" y="-280" as="targetPoint" />
            <Array as="points">
              <mxPoint x="1891" y="-380" />
              <mxPoint x="1750" y="-380" />
            </Array>
          </mxGeometry>
        </mxCell>
        <mxCell id="XpqctZe5sNOAdH_IYwT--5" value="" style="endArrow=block;endSize=16;endFill=0;html=1;rounded=0;entryX=0.5;entryY=0;entryDx=0;entryDy=0;exitX=0.5;exitY=1;exitDx=0;exitDy=0;" parent="1" source="7-aJ9GHmP8vsTWekd-Si-32" target="7-aJ9GHmP8vsTWekd-Si-29" edge="1">
          <mxGeometry width="160" relative="1" as="geometry">
            <mxPoint x="1418" y="-340" as="sourcePoint" />
            <mxPoint x="1578" y="-340" as="targetPoint" />
            <Array as="points">
              <mxPoint x="1611" y="-380" />
              <mxPoint x="1750" y="-380" />
            </Array>
          </mxGeometry>
        </mxCell>
        <mxCell id="XpqctZe5sNOAdH_IYwT--29" value="" style="endArrow=block;endSize=16;endFill=0;html=1;rounded=0;entryX=0.5;entryY=1;entryDx=0;entryDy=0;exitX=0.458;exitY=0;exitDx=0;exitDy=0;exitPerimeter=0;" parent="1" source="7-aJ9GHmP8vsTWekd-Si-15" target="7-aJ9GHmP8vsTWekd-Si-12" edge="1">
          <mxGeometry width="160" relative="1" as="geometry">
            <mxPoint x="680" y="-580" as="sourcePoint" />
            <mxPoint x="680" y="-480" as="targetPoint" />
            <Array as="points">
              <mxPoint x="680" y="-620" />
              <mxPoint x="550" y="-620" />
            </Array>
          </mxGeometry>
        </mxCell>
        <mxCell id="XpqctZe5sNOAdH_IYwT--31" value="" style="endArrow=block;endSize=16;endFill=0;html=1;rounded=0;entryX=0.5;entryY=1;entryDx=0;entryDy=0;exitX=0.5;exitY=0;exitDx=0;exitDy=0;" parent="1" source="7-aJ9GHmP8vsTWekd-Si-16" target="7-aJ9GHmP8vsTWekd-Si-12" edge="1">
          <mxGeometry x="0.375" y="-10" width="160" relative="1" as="geometry">
            <mxPoint x="520" y="-480" as="sourcePoint" />
            <mxPoint x="680" y="-480" as="targetPoint" />
            <Array as="points">
              <mxPoint x="970" y="-620" />
              <mxPoint x="830" y="-620" />
              <mxPoint x="690" y="-620" />
              <mxPoint x="550" y="-620" />
            </Array>
            <mxPoint as="offset" />
          </mxGeometry>
        </mxCell>
        <mxCell id="XpqctZe5sNOAdH_IYwT--41" value="" style="endArrow=block;endSize=16;endFill=0;html=1;rounded=0;entryX=0.5;entryY=1;entryDx=0;entryDy=0;exitX=0.5;exitY=0;exitDx=0;exitDy=0;" parent="1" source="7-aJ9GHmP8vsTWekd-Si-23" target="7-aJ9GHmP8vsTWekd-Si-12" edge="1">
          <mxGeometry width="160" relative="1" as="geometry">
            <mxPoint x="-20" y="-480" as="sourcePoint" />
            <mxPoint x="140" y="-480" as="targetPoint" />
            <Array as="points">
              <mxPoint x="130" y="-620" />
              <mxPoint x="340" y="-620" />
              <mxPoint x="450" y="-620" />
              <mxPoint x="550" y="-620" />
            </Array>
          </mxGeometry>
        </mxCell>
        <mxCell id="3hlUhiG8tyHlCcBNDu4u-1" value="" style="endArrow=block;endSize=16;endFill=0;html=1;rounded=0;entryX=0.5;entryY=0;entryDx=0;entryDy=0;exitX=0.5;exitY=1;exitDx=0;exitDy=0;" parent="1" source="7-aJ9GHmP8vsTWekd-Si-75" target="7-aJ9GHmP8vsTWekd-Si-12" edge="1">
          <mxGeometry width="160" relative="1" as="geometry">
            <mxPoint x="570" y="-740" as="sourcePoint" />
            <mxPoint x="730" y="-740" as="targetPoint" />
            <Array as="points">
              <mxPoint x="690" y="-730" />
              <mxPoint x="550" y="-730" />
              <mxPoint x="550" y="-700" />
            </Array>
          </mxGeometry>
        </mxCell>
        <mxCell id="3hlUhiG8tyHlCcBNDu4u-2" value="" style="endArrow=block;endSize=16;endFill=0;html=1;rounded=0;entryX=0.5;entryY=0;entryDx=0;entryDy=0;exitX=0.5;exitY=1;exitDx=0;exitDy=0;" parent="1" source="7-aJ9GHmP8vsTWekd-Si-83" target="7-aJ9GHmP8vsTWekd-Si-12" edge="1">
          <mxGeometry width="160" relative="1" as="geometry">
            <mxPoint x="360" y="-840" as="sourcePoint" />
            <mxPoint x="520" y="-840" as="targetPoint" />
          </mxGeometry>
        </mxCell>
        <mxCell id="3hlUhiG8tyHlCcBNDu4u-3" value="" style="endArrow=block;endSize=16;endFill=0;html=1;rounded=0;entryX=0.5;entryY=0;entryDx=0;entryDy=0;exitX=0.5;exitY=1;exitDx=0;exitDy=0;" parent="1" source="7-aJ9GHmP8vsTWekd-Si-84" target="7-aJ9GHmP8vsTWekd-Si-12" edge="1">
          <mxGeometry width="160" relative="1" as="geometry">
            <mxPoint x="570" y="-740" as="sourcePoint" />
            <mxPoint x="730" y="-740" as="targetPoint" />
            <Array as="points">
              <mxPoint x="830" y="-840" />
              <mxPoint x="690" y="-840" />
              <mxPoint x="550" y="-840" />
            </Array>
          </mxGeometry>
        </mxCell>
        <mxCell id="3hlUhiG8tyHlCcBNDu4u-4" value="" style="endArrow=block;endSize=16;endFill=0;html=1;rounded=0;entryX=0.5;entryY=0;entryDx=0;entryDy=0;exitX=0.5;exitY=1;exitDx=0;exitDy=0;" parent="1" source="7-aJ9GHmP8vsTWekd-Si-82" target="7-aJ9GHmP8vsTWekd-Si-12" edge="1">
          <mxGeometry width="160" relative="1" as="geometry">
            <mxPoint x="570" y="-740" as="sourcePoint" />
            <mxPoint x="730" y="-740" as="targetPoint" />
            <Array as="points">
              <mxPoint x="270" y="-840" />
              <mxPoint x="440" y="-840" />
              <mxPoint x="550" y="-840" />
            </Array>
          </mxGeometry>
        </mxCell>
        <mxCell id="3hlUhiG8tyHlCcBNDu4u-9" value="" style="endArrow=block;endSize=16;endFill=0;html=1;rounded=0;entryX=0.5;entryY=0;entryDx=0;entryDy=0;exitX=0.5;exitY=1;exitDx=0;exitDy=0;" parent="1" source="7-aJ9GHmP8vsTWekd-Si-73" target="7-aJ9GHmP8vsTWekd-Si-12" edge="1">
          <mxGeometry width="160" relative="1" as="geometry">
            <mxPoint x="80" y="-740" as="sourcePoint" />
            <mxPoint x="240" y="-740" as="targetPoint" />
            <Array as="points">
              <mxPoint x="130" y="-730" />
              <mxPoint x="410" y="-730" />
              <mxPoint x="550" y="-730" />
            </Array>
          </mxGeometry>
        </mxCell>
        <mxCell id="3hlUhiG8tyHlCcBNDu4u-12" value="" style="endArrow=block;endSize=16;endFill=0;html=1;rounded=0;entryX=0.5;entryY=0;entryDx=0;entryDy=0;exitX=0.5;exitY=1;exitDx=0;exitDy=0;" parent="1" source="7-aJ9GHmP8vsTWekd-Si-76" target="7-aJ9GHmP8vsTWekd-Si-12" edge="1">
          <mxGeometry width="160" relative="1" as="geometry">
            <mxPoint x="812" y="-690" as="sourcePoint" />
            <mxPoint x="1032" y="-650" as="targetPoint" />
            <Array as="points">
              <mxPoint x="970" y="-730" />
              <mxPoint x="690" y="-730" />
              <mxPoint x="550" y="-730" />
            </Array>
          </mxGeometry>
        </mxCell>
        <mxCell id="nAxj0KOquGuta2VhhmsX-2" value="S&lt;sup&gt;2&lt;/sup&gt;MFM 元模型" style="text;html=1;strokeColor=none;fillColor=none;align=center;verticalAlign=middle;whiteSpace=wrap;rounded=0;fontSize=26;fontFamily=Times New Roman;fontStyle=1" parent="1" vertex="1">
          <mxGeometry x="-1130" y="-1140" width="280" height="30" as="geometry" />
        </mxCell>
        <mxCell id="_OpLvnGNROC4zTUCR6nX-14" value="" style="endArrow=block;endSize=16;endFill=0;html=1;rounded=0;entryX=0.5;entryY=0;entryDx=0;entryDy=0;exitX=0.5;exitY=1;exitDx=0;exitDy=0;" parent="1" source="7-aJ9GHmP8vsTWekd-Si-55" target="7-aJ9GHmP8vsTWekd-Si-90" edge="1">
          <mxGeometry width="160" relative="1" as="geometry">
            <mxPoint x="-601" y="-290" as="sourcePoint" />
            <mxPoint x="-441" y="-290" as="targetPoint" />
          </mxGeometry>
        </mxCell>
        <mxCell id="_OpLvnGNROC4zTUCR6nX-15" value="" style="endArrow=block;endSize=16;endFill=0;html=1;rounded=0;entryX=0.5;entryY=0;entryDx=0;entryDy=0;exitX=0.5;exitY=1;exitDx=0;exitDy=0;" parent="1" source="7-aJ9GHmP8vsTWekd-Si-66" target="7-aJ9GHmP8vsTWekd-Si-90" edge="1">
          <mxGeometry width="160" relative="1" as="geometry">
            <mxPoint x="-601" y="-290" as="sourcePoint" />
            <mxPoint x="-441" y="-290" as="targetPoint" />
            <Array as="points">
              <mxPoint x="-440" y="-380" />
              <mxPoint x="-581" y="-380" />
            </Array>
          </mxGeometry>
        </mxCell>
        <mxCell id="_OpLvnGNROC4zTUCR6nX-16" value="" style="endArrow=block;endSize=16;endFill=0;html=1;rounded=0;entryX=0.5;entryY=0;entryDx=0;entryDy=0;exitX=0.5;exitY=1;exitDx=0;exitDy=0;" parent="1" source="7-aJ9GHmP8vsTWekd-Si-57" target="7-aJ9GHmP8vsTWekd-Si-90" edge="1">
          <mxGeometry width="160" relative="1" as="geometry">
            <mxPoint x="-601" y="-290" as="sourcePoint" />
            <mxPoint x="-441" y="-290" as="targetPoint" />
            <Array as="points">
              <mxPoint x="-160" y="-380" />
              <mxPoint x="-581" y="-380" />
            </Array>
          </mxGeometry>
        </mxCell>
        <mxCell id="_OpLvnGNROC4zTUCR6nX-17" value="" style="endArrow=block;endSize=16;endFill=0;html=1;rounded=0;entryX=0.5;entryY=0;entryDx=0;entryDy=0;exitX=0.5;exitY=1;exitDx=0;exitDy=0;" parent="1" source="7-aJ9GHmP8vsTWekd-Si-65" target="7-aJ9GHmP8vsTWekd-Si-90" edge="1">
          <mxGeometry width="160" relative="1" as="geometry">
            <mxPoint x="-601" y="-290" as="sourcePoint" />
            <mxPoint x="-441" y="-290" as="targetPoint" />
            <Array as="points">
              <mxPoint x="-720" y="-380" />
              <mxPoint x="-581" y="-380" />
            </Array>
          </mxGeometry>
        </mxCell>
        <mxCell id="_OpLvnGNROC4zTUCR6nX-18" value="" style="endArrow=block;endSize=16;endFill=0;html=1;rounded=0;entryX=0.5;entryY=0;entryDx=0;entryDy=0;" parent="1" target="7-aJ9GHmP8vsTWekd-Si-90" edge="1">
          <mxGeometry width="160" relative="1" as="geometry">
            <mxPoint x="-1001" y="-410" as="sourcePoint" />
            <mxPoint x="-441" y="-290" as="targetPoint" />
            <Array as="points">
              <mxPoint x="-1001" y="-380" />
              <mxPoint x="-581" y="-380" />
            </Array>
          </mxGeometry>
        </mxCell>
        <mxCell id="_OpLvnGNROC4zTUCR6nX-20" value="" style="endArrow=block;endSize=16;endFill=0;html=1;rounded=0;entryX=0.5;entryY=1;entryDx=0;entryDy=0;exitX=0.5;exitY=0;exitDx=0;exitDy=0;" parent="1" source="7-aJ9GHmP8vsTWekd-Si-59" target="7-aJ9GHmP8vsTWekd-Si-90" edge="1">
          <mxGeometry width="160" relative="1" as="geometry">
            <mxPoint x="-717" y="-100" as="sourcePoint" />
            <mxPoint x="-557" y="-100" as="targetPoint" />
            <Array as="points">
              <mxPoint x="-719" y="-270" />
              <mxPoint x="-581" y="-270" />
            </Array>
          </mxGeometry>
        </mxCell>
        <mxCell id="_OpLvnGNROC4zTUCR6nX-21" value="" style="endArrow=block;endSize=16;endFill=0;html=1;rounded=0;entryX=0.5;entryY=1;entryDx=0;entryDy=0;exitX=0.5;exitY=0;exitDx=0;exitDy=0;" parent="1" source="7-aJ9GHmP8vsTWekd-Si-60" target="7-aJ9GHmP8vsTWekd-Si-90" edge="1">
          <mxGeometry width="160" relative="1" as="geometry">
            <mxPoint x="-610" y="-60" as="sourcePoint" />
            <mxPoint x="-450" y="-60" as="targetPoint" />
            <Array as="points">
              <mxPoint x="-439" y="-270" />
              <mxPoint x="-581" y="-270" />
            </Array>
          </mxGeometry>
        </mxCell>
        <mxCell id="_OpLvnGNROC4zTUCR6nX-22" value="" style="endArrow=block;endSize=16;endFill=0;html=1;rounded=0;entryX=0.5;entryY=1;entryDx=0;entryDy=0;exitX=0.5;exitY=0;exitDx=0;exitDy=0;" parent="1" source="7-aJ9GHmP8vsTWekd-Si-63" target="7-aJ9GHmP8vsTWekd-Si-90" edge="1">
          <mxGeometry width="160" relative="1" as="geometry">
            <mxPoint x="-681" y="-80" as="sourcePoint" />
            <mxPoint x="-521" y="-80" as="targetPoint" />
            <Array as="points">
              <mxPoint x="-159" y="-270" />
              <mxPoint x="-581" y="-270" />
            </Array>
          </mxGeometry>
        </mxCell>
        <mxCell id="_OpLvnGNROC4zTUCR6nX-23" value="" style="endArrow=block;endSize=16;endFill=0;html=1;rounded=0;entryX=0.5;entryY=1;entryDx=0;entryDy=0;exitX=0.5;exitY=0;exitDx=0;exitDy=0;" parent="1" source="7-aJ9GHmP8vsTWekd-Si-53" target="7-aJ9GHmP8vsTWekd-Si-90" edge="1">
          <mxGeometry width="160" relative="1" as="geometry">
            <mxPoint x="-601" y="-400" as="sourcePoint" />
            <mxPoint x="-441" y="-400" as="targetPoint" />
            <Array as="points">
              <mxPoint x="-999" y="-270" />
              <mxPoint x="-581" y="-270" />
            </Array>
          </mxGeometry>
        </mxCell>
        <mxCell id="_OpLvnGNROC4zTUCR6nX-24" value="" style="endArrow=block;endSize=16;endFill=0;html=1;rounded=0;entryX=0.5;entryY=0;entryDx=0;entryDy=0;exitX=0.5;exitY=1;exitDx=0;exitDy=0;" parent="1" source="7-aJ9GHmP8vsTWekd-Si-58" target="7-aJ9GHmP8vsTWekd-Si-90" edge="1">
          <mxGeometry width="160" relative="1" as="geometry">
            <mxPoint x="-670" y="-100" as="sourcePoint" />
            <mxPoint x="-510" y="-100" as="targetPoint" />
            <Array as="points">
              <mxPoint x="-301" y="-490" />
              <mxPoint x="-581" y="-490" />
            </Array>
          </mxGeometry>
        </mxCell>
        <mxCell id="_OpLvnGNROC4zTUCR6nX-25" value="" style="endArrow=block;endSize=16;endFill=0;html=1;rounded=0;entryX=0.5;entryY=0;entryDx=0;entryDy=0;exitX=0.5;exitY=1;exitDx=0;exitDy=0;" parent="1" source="7-aJ9GHmP8vsTWekd-Si-52" target="7-aJ9GHmP8vsTWekd-Si-90" edge="1">
          <mxGeometry width="160" relative="1" as="geometry">
            <mxPoint x="-601" y="-400" as="sourcePoint" />
            <mxPoint x="-441" y="-400" as="targetPoint" />
            <Array as="points">
              <mxPoint x="-861" y="-490" />
              <mxPoint x="-581" y="-490" />
            </Array>
          </mxGeometry>
        </mxCell>
        <mxCell id="_OpLvnGNROC4zTUCR6nX-26" value="" style="endArrow=block;endSize=16;endFill=0;html=1;rounded=0;entryX=0.5;entryY=0;entryDx=0;entryDy=0;exitX=0.5;exitY=1;exitDx=0;exitDy=0;" parent="1" source="7-aJ9GHmP8vsTWekd-Si-62" target="7-aJ9GHmP8vsTWekd-Si-90" edge="1">
          <mxGeometry width="160" relative="1" as="geometry">
            <mxPoint x="-601" y="-400" as="sourcePoint" />
            <mxPoint x="-441" y="-400" as="targetPoint" />
            <Array as="points">
              <mxPoint x="-441" y="-490" />
              <mxPoint x="-581" y="-490" />
            </Array>
          </mxGeometry>
        </mxCell>
        <mxCell id="_OpLvnGNROC4zTUCR6nX-27" value="" style="endArrow=block;endSize=16;endFill=0;html=1;rounded=0;entryX=0.5;entryY=0;entryDx=0;entryDy=0;exitX=0.5;exitY=1;exitDx=0;exitDy=0;" parent="1" source="7-aJ9GHmP8vsTWekd-Si-56" target="7-aJ9GHmP8vsTWekd-Si-90" edge="1">
          <mxGeometry width="160" relative="1" as="geometry">
            <mxPoint x="-721" y="-600" as="sourcePoint" />
            <mxPoint x="-441" y="-400" as="targetPoint" />
            <Array as="points">
              <mxPoint x="-721" y="-490" />
              <mxPoint x="-581" y="-490" />
            </Array>
          </mxGeometry>
        </mxCell>
        <mxCell id="_OpLvnGNROC4zTUCR6nX-29" value="" style="endArrow=block;endSize=16;endFill=0;html=1;rounded=0;entryX=0.5;entryY=0;entryDx=0;entryDy=0;exitX=0.5;exitY=1;exitDx=0;exitDy=0;" parent="1" source="7-aJ9GHmP8vsTWekd-Si-43" target="7-aJ9GHmP8vsTWekd-Si-37" edge="1">
          <mxGeometry x="-0.25" y="10" width="160" relative="1" as="geometry">
            <mxPoint x="2191" y="-940" as="sourcePoint" />
            <mxPoint x="2351" y="-940" as="targetPoint" />
            <Array as="points">
              <mxPoint x="1891" y="-1070" />
              <mxPoint x="1750" y="-1070" />
            </Array>
            <mxPoint as="offset" />
          </mxGeometry>
        </mxCell>
        <mxCell id="_OpLvnGNROC4zTUCR6nX-31" value="" style="endArrow=block;endSize=16;endFill=0;html=1;rounded=0;entryX=0.5;entryY=0;entryDx=0;entryDy=0;exitX=0.5;exitY=1;exitDx=0;exitDy=0;" parent="1" source="7-aJ9GHmP8vsTWekd-Si-42" target="7-aJ9GHmP8vsTWekd-Si-37" edge="1">
          <mxGeometry width="160" relative="1" as="geometry">
            <mxPoint x="1600" y="-1190" as="sourcePoint" />
            <mxPoint x="1760" y="-1190" as="targetPoint" />
            <Array as="points">
              <mxPoint x="1611" y="-1070" />
              <mxPoint x="1750" y="-1070" />
            </Array>
          </mxGeometry>
        </mxCell>
        <mxCell id="_OpLvnGNROC4zTUCR6nX-32" value="" style="endArrow=block;endSize=16;endFill=0;html=1;rounded=0;entryX=0.5;entryY=1;entryDx=0;entryDy=0;exitX=0.5;exitY=0;exitDx=0;exitDy=0;" parent="1" source="7-aJ9GHmP8vsTWekd-Si-51" target="7-aJ9GHmP8vsTWekd-Si-37" edge="1">
          <mxGeometry width="160" relative="1" as="geometry">
            <mxPoint x="2071" y="-1150" as="sourcePoint" />
            <mxPoint x="2231" y="-1150" as="targetPoint" />
            <Array as="points">
              <mxPoint x="1891" y="-960" />
              <mxPoint x="1750" y="-960" />
            </Array>
          </mxGeometry>
        </mxCell>
        <mxCell id="_OpLvnGNROC4zTUCR6nX-34" value="" style="endArrow=block;endSize=16;endFill=0;html=1;rounded=0;entryX=0.5;entryY=1;entryDx=0;entryDy=0;exitX=0.5;exitY=0;exitDx=0;exitDy=0;" parent="1" source="7-aJ9GHmP8vsTWekd-Si-46" target="7-aJ9GHmP8vsTWekd-Si-37" edge="1">
          <mxGeometry width="160" relative="1" as="geometry">
            <mxPoint x="1171" y="-1050" as="sourcePoint" />
            <mxPoint x="1331" y="-1050" as="targetPoint" />
            <Array as="points">
              <mxPoint x="1611" y="-960" />
              <mxPoint x="1750" y="-960" />
            </Array>
          </mxGeometry>
        </mxCell>
        <mxCell id="_OpLvnGNROC4zTUCR6nX-35" value="" style="endArrow=block;endSize=16;endFill=0;html=1;rounded=0;entryX=0.5;entryY=1;entryDx=0;entryDy=0;exitX=0.5;exitY=0;exitDx=0;exitDy=0;" parent="1" source="7-aJ9GHmP8vsTWekd-Si-47" target="7-aJ9GHmP8vsTWekd-Si-37" edge="1">
          <mxGeometry x="-1" y="427" width="160" relative="1" as="geometry">
            <mxPoint x="1741" y="-940" as="sourcePoint" />
            <mxPoint x="1901" y="-940" as="targetPoint" />
            <Array as="points">
              <mxPoint x="1331" y="-860" />
              <mxPoint x="1611" y="-860" />
              <mxPoint x="1611" y="-880" />
              <mxPoint x="1611" y="-960" />
              <mxPoint x="1750" y="-960" />
            </Array>
            <mxPoint x="-400" y="277" as="offset" />
          </mxGeometry>
        </mxCell>
        <mxCell id="_OpLvnGNROC4zTUCR6nX-36" value="" style="endArrow=block;endSize=16;endFill=0;html=1;rounded=0;entryX=0.5;entryY=1;entryDx=0;entryDy=0;exitX=0.5;exitY=0;exitDx=0;exitDy=0;" parent="1" source="7-aJ9GHmP8vsTWekd-Si-49" target="7-aJ9GHmP8vsTWekd-Si-37" edge="1">
          <mxGeometry width="160" relative="1" as="geometry">
            <mxPoint x="1741" y="-830" as="sourcePoint" />
            <mxPoint x="1901" y="-830" as="targetPoint" />
            <Array as="points">
              <mxPoint x="2171" y="-860" />
              <mxPoint x="1891" y="-860" />
              <mxPoint x="1891" y="-960" />
              <mxPoint x="1750" y="-960" />
            </Array>
          </mxGeometry>
        </mxCell>
        <mxCell id="_OpLvnGNROC4zTUCR6nX-38" value="" style="endArrow=block;endSize=16;endFill=0;html=1;rounded=0;entryX=0.5;entryY=1;entryDx=0;entryDy=0;exitX=0.5;exitY=0;exitDx=0;exitDy=0;" parent="1" source="7-aJ9GHmP8vsTWekd-Si-41" target="7-aJ9GHmP8vsTWekd-Si-37" edge="1">
          <mxGeometry width="160" relative="1" as="geometry">
            <mxPoint x="2111" y="-1110" as="sourcePoint" />
            <mxPoint x="2271" y="-1110" as="targetPoint" />
            <Array as="points">
              <mxPoint x="2170" y="-740" />
              <mxPoint x="2031" y="-740" />
              <mxPoint x="2031" y="-860" />
              <mxPoint x="1891" y="-860" />
              <mxPoint x="1891" y="-960" />
              <mxPoint x="1750" y="-960" />
            </Array>
          </mxGeometry>
        </mxCell>
        <mxCell id="_OpLvnGNROC4zTUCR6nX-39" value="" style="endArrow=block;endSize=16;endFill=0;html=1;rounded=0;entryX=0.5;entryY=1;entryDx=0;entryDy=0;exitX=0.5;exitY=0;exitDx=0;exitDy=0;" parent="1" source="7-aJ9GHmP8vsTWekd-Si-40" target="7-aJ9GHmP8vsTWekd-Si-37" edge="1">
          <mxGeometry width="160" relative="1" as="geometry">
            <mxPoint x="2241" y="-1010" as="sourcePoint" />
            <mxPoint x="2401" y="-1010" as="targetPoint" />
            <Array as="points">
              <mxPoint x="1890" y="-740" />
              <mxPoint x="2031" y="-740" />
              <mxPoint x="2031" y="-860" />
              <mxPoint x="1890" y="-860" />
              <mxPoint x="1890" y="-960" />
              <mxPoint x="1750" y="-960" />
            </Array>
          </mxGeometry>
        </mxCell>
        <mxCell id="_OpLvnGNROC4zTUCR6nX-40" value="" style="endArrow=block;endSize=16;endFill=0;html=1;rounded=0;entryX=0.5;entryY=1;entryDx=0;entryDy=0;exitX=0.5;exitY=0;exitDx=0;exitDy=0;" parent="1" source="7-aJ9GHmP8vsTWekd-Si-38" target="7-aJ9GHmP8vsTWekd-Si-37" edge="1">
          <mxGeometry width="160" relative="1" as="geometry">
            <mxPoint x="1741" y="-940" as="sourcePoint" />
            <mxPoint x="1901" y="-940" as="targetPoint" />
            <Array as="points">
              <mxPoint x="1610" y="-740" />
              <mxPoint x="1471" y="-740" />
              <mxPoint x="1471" y="-860" />
              <mxPoint x="1610" y="-860" />
              <mxPoint x="1610" y="-960" />
              <mxPoint x="1750" y="-960" />
            </Array>
          </mxGeometry>
        </mxCell>
        <mxCell id="_OpLvnGNROC4zTUCR6nX-43" value="" style="endArrow=block;endSize=16;endFill=0;html=1;rounded=0;entryX=0.5;entryY=1;entryDx=0;entryDy=0;exitX=0.5;exitY=0;exitDx=0;exitDy=0;" parent="1" source="7-aJ9GHmP8vsTWekd-Si-39" target="7-aJ9GHmP8vsTWekd-Si-37" edge="1">
          <mxGeometry width="160" relative="1" as="geometry">
            <mxPoint x="1741" y="-830" as="sourcePoint" />
            <mxPoint x="1901" y="-830" as="targetPoint" />
            <Array as="points">
              <mxPoint x="1330" y="-740" />
              <mxPoint x="1471" y="-740" />
              <mxPoint x="1471" y="-860" />
              <mxPoint x="1611" y="-860" />
              <mxPoint x="1611" y="-960" />
              <mxPoint x="1750" y="-960" />
            </Array>
          </mxGeometry>
        </mxCell>
        <mxCell id="_OpLvnGNROC4zTUCR6nX-44" value="" style="endArrow=block;endSize=16;endFill=0;html=1;rounded=0;entryX=0.5;entryY=1;entryDx=0;entryDy=0;exitX=0.5;exitY=0;exitDx=0;exitDy=0;" parent="1" source="7-aJ9GHmP8vsTWekd-Si-35" target="7-aJ9GHmP8vsTWekd-Si-29" edge="1">
          <mxGeometry width="160" relative="1" as="geometry">
            <mxPoint x="1731" y="-390" as="sourcePoint" />
            <mxPoint x="1891" y="-390" as="targetPoint" />
            <Array as="points">
              <mxPoint x="1611" y="-270" />
              <mxPoint x="1751" y="-270" />
            </Array>
          </mxGeometry>
        </mxCell>
        <mxCell id="_OpLvnGNROC4zTUCR6nX-45" value="" style="endArrow=block;endSize=16;endFill=0;html=1;rounded=0;entryX=0.5;entryY=1;entryDx=0;entryDy=0;exitX=0.5;exitY=0;exitDx=0;exitDy=0;" parent="1" source="7-aJ9GHmP8vsTWekd-Si-36" target="7-aJ9GHmP8vsTWekd-Si-29" edge="1">
          <mxGeometry width="160" relative="1" as="geometry">
            <mxPoint x="2091" y="-490" as="sourcePoint" />
            <mxPoint x="2251" y="-490" as="targetPoint" />
            <Array as="points">
              <mxPoint x="1891" y="-270" />
              <mxPoint x="1751" y="-270" />
            </Array>
          </mxGeometry>
        </mxCell>
        <mxCell id="_OpLvnGNROC4zTUCR6nX-46" value="" style="endArrow=block;endSize=16;endFill=0;html=1;rounded=0;entryX=0.5;entryY=1;entryDx=0;entryDy=0;exitX=0.5;exitY=0;exitDx=0;exitDy=0;" parent="1" source="7-aJ9GHmP8vsTWekd-Si-89" target="7-aJ9GHmP8vsTWekd-Si-29" edge="1">
          <mxGeometry width="160" relative="1" as="geometry">
            <mxPoint x="2161" y="-400" as="sourcePoint" />
            <mxPoint x="2321" y="-400" as="targetPoint" />
            <Array as="points">
              <mxPoint x="2171" y="-270" />
              <mxPoint x="1751" y="-270" />
            </Array>
          </mxGeometry>
        </mxCell>
        <mxCell id="_OpLvnGNROC4zTUCR6nX-47" value="" style="endArrow=block;endSize=16;endFill=0;html=1;rounded=0;entryX=0.5;entryY=1;entryDx=0;entryDy=0;exitX=0.5;exitY=0;exitDx=0;exitDy=0;" parent="1" source="7-aJ9GHmP8vsTWekd-Si-67" target="7-aJ9GHmP8vsTWekd-Si-29" edge="1">
          <mxGeometry width="160" relative="1" as="geometry">
            <mxPoint x="1731" y="-390" as="sourcePoint" />
            <mxPoint x="1891" y="-390" as="targetPoint" />
            <Array as="points">
              <mxPoint x="1331" y="-270" />
              <mxPoint x="1751" y="-270" />
            </Array>
          </mxGeometry>
        </mxCell>
        <mxCell id="_OpLvnGNROC4zTUCR6nX-48" value="" style="endArrow=block;endSize=16;endFill=0;html=1;rounded=0;entryX=0;entryY=0.5;entryDx=0;entryDy=0;exitX=1;exitY=0.5;exitDx=0;exitDy=0;" parent="1" source="7-aJ9GHmP8vsTWekd-Si-31" target="7-aJ9GHmP8vsTWekd-Si-29" edge="1">
          <mxGeometry width="160" relative="1" as="geometry">
            <mxPoint x="1208.5" y="-435.77" as="sourcePoint" />
            <mxPoint x="1368.5" y="-435.77" as="targetPoint" />
          </mxGeometry>
        </mxCell>
        <mxCell id="_OpLvnGNROC4zTUCR6nX-51" value="" style="endArrow=block;endSize=16;endFill=0;html=1;rounded=0;entryX=1;entryY=0.5;entryDx=0;entryDy=0;exitX=0;exitY=0.5;exitDx=0;exitDy=0;" parent="1" source="7-aJ9GHmP8vsTWekd-Si-30" target="7-aJ9GHmP8vsTWekd-Si-29" edge="1">
          <mxGeometry width="160" relative="1" as="geometry">
            <mxPoint x="1731" y="-390" as="sourcePoint" />
            <mxPoint x="1891" y="-390" as="targetPoint" />
          </mxGeometry>
        </mxCell>
        <mxCell id="_OpLvnGNROC4zTUCR6nX-52" style="edgeStyle=orthogonalEdgeStyle;rounded=0;orthogonalLoop=1;jettySize=auto;html=1;exitX=0.5;exitY=1;exitDx=0;exitDy=0;" parent="1" source="7-aJ9GHmP8vsTWekd-Si-86" target="7-aJ9GHmP8vsTWekd-Si-86" edge="1">
          <mxGeometry relative="1" as="geometry" />
        </mxCell>
        <mxCell id="_OpLvnGNROC4zTUCR6nX-61" value="" style="endArrow=block;endSize=16;endFill=0;html=1;rounded=0;entryX=0.5;entryY=0;entryDx=0;entryDy=0;exitX=0.5;exitY=1;exitDx=0;exitDy=0;" parent="1" source="7-aJ9GHmP8vsTWekd-Si-17" target="7-aJ9GHmP8vsTWekd-Si-12" edge="1">
          <mxGeometry x="-1" y="140" width="160" relative="1" as="geometry">
            <mxPoint x="1190" y="-710" as="sourcePoint" />
            <mxPoint x="1350" y="-710" as="targetPoint" />
            <Array as="points">
              <mxPoint x="970" y="-1060" />
              <mxPoint x="550" y="-1060" />
            </Array>
            <mxPoint x="-140" y="130" as="offset" />
          </mxGeometry>
        </mxCell>
        <mxCell id="_OpLvnGNROC4zTUCR6nX-62" value="" style="endArrow=block;endSize=16;endFill=0;html=1;rounded=0;entryX=0.5;entryY=1;entryDx=0;entryDy=0;exitX=0.5;exitY=0;exitDx=0;exitDy=0;" parent="1" source="7-aJ9GHmP8vsTWekd-Si-24" target="7-aJ9GHmP8vsTWekd-Si-12" edge="1">
          <mxGeometry x="-1" y="140" width="160" relative="1" as="geometry">
            <mxPoint x="1200" y="-700" as="sourcePoint" />
            <mxPoint x="1360" y="-700" as="targetPoint" />
            <mxPoint x="-140" y="130" as="offset" />
            <Array as="points">
              <mxPoint x="410" y="-380" />
              <mxPoint x="550" y="-380" />
            </Array>
          </mxGeometry>
        </mxCell>
        <mxCell id="_OpLvnGNROC4zTUCR6nX-63" value="" style="endArrow=block;endSize=16;endFill=0;html=1;rounded=0;entryX=0.5;entryY=1;entryDx=0;entryDy=0;exitX=0.5;exitY=0;exitDx=0;exitDy=0;" parent="1" source="7-aJ9GHmP8vsTWekd-Si-70" target="7-aJ9GHmP8vsTWekd-Si-12" edge="1">
          <mxGeometry x="-1" y="140" width="160" relative="1" as="geometry">
            <mxPoint x="1210" y="-690" as="sourcePoint" />
            <mxPoint x="1370" y="-690" as="targetPoint" />
            <mxPoint x="-140" y="130" as="offset" />
            <Array as="points">
              <mxPoint x="130" y="-380" />
              <mxPoint x="550" y="-380" />
            </Array>
          </mxGeometry>
        </mxCell>
        <mxCell id="_OpLvnGNROC4zTUCR6nX-64" value="" style="endArrow=block;endSize=16;endFill=0;html=1;rounded=0;entryX=0.5;entryY=1;entryDx=0;entryDy=0;exitX=0.5;exitY=0;exitDx=0;exitDy=0;" parent="1" source="7-aJ9GHmP8vsTWekd-Si-68" target="7-aJ9GHmP8vsTWekd-Si-12" edge="1">
          <mxGeometry x="-1" y="140" width="160" relative="1" as="geometry">
            <mxPoint x="1220" y="-680" as="sourcePoint" />
            <mxPoint x="1380" y="-680" as="targetPoint" />
            <mxPoint x="-140" y="130" as="offset" />
            <Array as="points">
              <mxPoint x="690" y="-380" />
              <mxPoint x="550" y="-380" />
            </Array>
          </mxGeometry>
        </mxCell>
        <mxCell id="_OpLvnGNROC4zTUCR6nX-65" value="" style="endArrow=block;endSize=16;endFill=0;html=1;rounded=0;entryX=0.5;entryY=1;entryDx=0;entryDy=0;exitX=0.5;exitY=0;exitDx=0;exitDy=0;" parent="1" source="7-aJ9GHmP8vsTWekd-Si-25" target="7-aJ9GHmP8vsTWekd-Si-12" edge="1">
          <mxGeometry x="-1" y="140" width="160" relative="1" as="geometry">
            <mxPoint x="1230" y="-670" as="sourcePoint" />
            <mxPoint x="1390" y="-670" as="targetPoint" />
            <mxPoint x="-140" y="130" as="offset" />
            <Array as="points">
              <mxPoint x="970" y="-380" />
              <mxPoint x="550" y="-380" />
            </Array>
          </mxGeometry>
        </mxCell>
        <mxCell id="_OpLvnGNROC4zTUCR6nX-66" value="" style="endArrow=block;endSize=16;endFill=0;html=1;rounded=0;entryX=0.5;entryY=1;entryDx=0;entryDy=0;exitX=0.5;exitY=0;exitDx=0;exitDy=0;" parent="1" source="7-aJ9GHmP8vsTWekd-Si-21" target="7-aJ9GHmP8vsTWekd-Si-12" edge="1">
          <mxGeometry x="-1" y="140" width="160" relative="1" as="geometry">
            <mxPoint x="1240" y="-660" as="sourcePoint" />
            <mxPoint x="1400" y="-660" as="targetPoint" />
            <mxPoint x="-140" y="130" as="offset" />
            <Array as="points">
              <mxPoint x="970" y="-500" />
              <mxPoint x="550" y="-500" />
            </Array>
          </mxGeometry>
        </mxCell>
        <mxCell id="_OpLvnGNROC4zTUCR6nX-67" value="" style="endArrow=block;endSize=16;endFill=0;html=1;rounded=0;entryX=0.5;entryY=1;entryDx=0;entryDy=0;exitX=0.5;exitY=0;exitDx=0;exitDy=0;" parent="1" source="7-aJ9GHmP8vsTWekd-Si-18" target="7-aJ9GHmP8vsTWekd-Si-12" edge="1">
          <mxGeometry x="-1" y="140" width="160" relative="1" as="geometry">
            <mxPoint x="1250" y="-650" as="sourcePoint" />
            <mxPoint x="1410" y="-650" as="targetPoint" />
            <mxPoint x="-140" y="130" as="offset" />
            <Array as="points">
              <mxPoint x="130" y="-500" />
              <mxPoint x="550" y="-500" />
            </Array>
          </mxGeometry>
        </mxCell>
        <mxCell id="_OpLvnGNROC4zTUCR6nX-68" value="" style="endArrow=block;endSize=16;endFill=0;html=1;rounded=0;entryX=0.5;entryY=1;entryDx=0;entryDy=0;exitX=0.5;exitY=0;exitDx=0;exitDy=0;" parent="1" source="7-aJ9GHmP8vsTWekd-Si-19" target="7-aJ9GHmP8vsTWekd-Si-12" edge="1">
          <mxGeometry x="-1" y="140" width="160" relative="1" as="geometry">
            <mxPoint x="1260" y="-640" as="sourcePoint" />
            <mxPoint x="1420" y="-640" as="targetPoint" />
            <mxPoint x="-140" y="130" as="offset" />
            <Array as="points">
              <mxPoint x="687" y="-500" />
              <mxPoint x="550" y="-500" />
            </Array>
          </mxGeometry>
        </mxCell>
        <mxCell id="_OpLvnGNROC4zTUCR6nX-69" value="" style="endArrow=block;endSize=16;endFill=0;html=1;rounded=0;entryX=0.5;entryY=1;entryDx=0;entryDy=0;exitX=0.5;exitY=0;exitDx=0;exitDy=0;" parent="1" source="7-aJ9GHmP8vsTWekd-Si-20" target="7-aJ9GHmP8vsTWekd-Si-12" edge="1">
          <mxGeometry x="-1" y="140" width="160" relative="1" as="geometry">
            <mxPoint x="1270" y="-630" as="sourcePoint" />
            <mxPoint x="1430" y="-630" as="targetPoint" />
            <mxPoint x="-140" y="130" as="offset" />
            <Array as="points">
              <mxPoint x="410" y="-500" />
              <mxPoint x="550" y="-500" />
            </Array>
          </mxGeometry>
        </mxCell>
        <mxCell id="_OpLvnGNROC4zTUCR6nX-71" value="" style="endArrow=block;endSize=16;endFill=0;html=1;rounded=0;entryX=0.5;entryY=1;entryDx=0;entryDy=0;exitX=0.5;exitY=0;exitDx=0;exitDy=0;" parent="1" source="7-aJ9GHmP8vsTWekd-Si-14" target="7-aJ9GHmP8vsTWekd-Si-12" edge="1">
          <mxGeometry x="-1" y="140" width="160" relative="1" as="geometry">
            <mxPoint x="1290" y="-610" as="sourcePoint" />
            <mxPoint x="1450" y="-610" as="targetPoint" />
            <mxPoint x="-140" y="130" as="offset" />
            <Array as="points">
              <mxPoint x="410" y="-620" />
              <mxPoint x="550" y="-620" />
            </Array>
          </mxGeometry>
        </mxCell>
        <mxCell id="_OpLvnGNROC4zTUCR6nX-73" value="" style="endArrow=block;endSize=16;endFill=0;html=1;rounded=0;entryX=0.5;entryY=0;entryDx=0;entryDy=0;exitX=0.5;exitY=1;exitDx=0;exitDy=0;" parent="1" source="7-aJ9GHmP8vsTWekd-Si-79" target="7-aJ9GHmP8vsTWekd-Si-12" edge="1">
          <mxGeometry x="-1" y="140" width="160" relative="1" as="geometry">
            <mxPoint x="1200" y="-700" as="sourcePoint" />
            <mxPoint x="1360" y="-700" as="targetPoint" />
            <mxPoint x="-140" y="130" as="offset" />
            <Array as="points">
              <mxPoint x="970" y="-950" />
              <mxPoint x="690" y="-950" />
              <mxPoint x="690" y="-840" />
              <mxPoint x="550" y="-840" />
            </Array>
          </mxGeometry>
        </mxCell>
        <mxCell id="_OpLvnGNROC4zTUCR6nX-74" value="" style="endArrow=block;endSize=16;endFill=0;html=1;rounded=0;entryX=0.5;entryY=0;entryDx=0;entryDy=0;exitX=0.5;exitY=1;exitDx=0;exitDy=0;" parent="1" source="7-aJ9GHmP8vsTWekd-Si-86" target="7-aJ9GHmP8vsTWekd-Si-12" edge="1">
          <mxGeometry x="-1" y="140" width="160" relative="1" as="geometry">
            <mxPoint x="1210" y="-690" as="sourcePoint" />
            <mxPoint x="1370" y="-690" as="targetPoint" />
            <mxPoint x="-140" y="130" as="offset" />
            <Array as="points">
              <mxPoint x="690" y="-950" />
              <mxPoint x="690" y="-840" />
              <mxPoint x="550" y="-840" />
            </Array>
          </mxGeometry>
        </mxCell>
        <mxCell id="_OpLvnGNROC4zTUCR6nX-75" value="" style="endArrow=block;endSize=16;endFill=0;html=1;rounded=0;entryX=0.5;entryY=1;entryDx=0;entryDy=0;exitX=0.5;exitY=0;exitDx=0;exitDy=0;" parent="1" source="7-aJ9GHmP8vsTWekd-Si-26" target="7-aJ9GHmP8vsTWekd-Si-12" edge="1">
          <mxGeometry x="-1" y="140" width="160" relative="1" as="geometry">
            <mxPoint x="1220" y="-680" as="sourcePoint" />
            <mxPoint x="1380" y="-680" as="targetPoint" />
            <mxPoint x="-140" y="130" as="offset" />
            <Array as="points">
              <mxPoint x="130" y="-270" />
              <mxPoint x="550" y="-270" />
            </Array>
          </mxGeometry>
        </mxCell>
        <mxCell id="_OpLvnGNROC4zTUCR6nX-76" value="" style="endArrow=block;endSize=16;endFill=0;html=1;rounded=0;entryX=0.5;entryY=1;entryDx=0;entryDy=0;exitX=0.5;exitY=0;exitDx=0;exitDy=0;" parent="1" source="7-aJ9GHmP8vsTWekd-Si-22" target="7-aJ9GHmP8vsTWekd-Si-12" edge="1">
          <mxGeometry x="-1" y="140" width="160" relative="1" as="geometry">
            <mxPoint x="1230" y="-670" as="sourcePoint" />
            <mxPoint x="1390" y="-670" as="targetPoint" />
            <mxPoint x="-140" y="130" as="offset" />
            <Array as="points">
              <mxPoint x="410" y="-270" />
              <mxPoint x="550" y="-270" />
            </Array>
          </mxGeometry>
        </mxCell>
        <mxCell id="_OpLvnGNROC4zTUCR6nX-77" value="" style="endArrow=block;endSize=16;endFill=0;html=1;rounded=0;entryX=0.5;entryY=1;entryDx=0;entryDy=0;exitX=0.5;exitY=0;exitDx=0;exitDy=0;" parent="1" source="7-aJ9GHmP8vsTWekd-Si-69" target="7-aJ9GHmP8vsTWekd-Si-12" edge="1">
          <mxGeometry x="-1" y="140" width="160" relative="1" as="geometry">
            <mxPoint x="1240" y="-660" as="sourcePoint" />
            <mxPoint x="1400" y="-660" as="targetPoint" />
            <mxPoint x="-140" y="130" as="offset" />
            <Array as="points">
              <mxPoint x="690" y="-270" />
              <mxPoint x="550" y="-270" />
            </Array>
          </mxGeometry>
        </mxCell>
        <mxCell id="_OpLvnGNROC4zTUCR6nX-78" value="" style="endArrow=block;endSize=16;endFill=0;html=1;rounded=0;entryX=0.5;entryY=1;entryDx=0;entryDy=0;exitX=0.5;exitY=0;exitDx=0;exitDy=0;" parent="1" source="7-aJ9GHmP8vsTWekd-Si-27" target="7-aJ9GHmP8vsTWekd-Si-12" edge="1">
          <mxGeometry x="-1" y="140" width="160" relative="1" as="geometry">
            <mxPoint x="1200" y="-600" as="sourcePoint" />
            <mxPoint x="1360" y="-600" as="targetPoint" />
            <mxPoint x="-140" y="130" as="offset" />
            <Array as="points">
              <mxPoint x="970" y="-270" />
              <mxPoint x="550" y="-270" />
            </Array>
          </mxGeometry>
        </mxCell>
        <mxCell id="_OpLvnGNROC4zTUCR6nX-80" value="" style="endArrow=block;endSize=16;endFill=0;html=1;rounded=0;entryX=0.5;entryY=0;entryDx=0;entryDy=0;exitX=0.5;exitY=1;exitDx=0;exitDy=0;" parent="1" source="7-aJ9GHmP8vsTWekd-Si-87" target="7-aJ9GHmP8vsTWekd-Si-12" edge="1">
          <mxGeometry x="-1" y="140" width="160" relative="1" as="geometry">
            <mxPoint x="1200" y="-700" as="sourcePoint" />
            <mxPoint x="1360" y="-700" as="targetPoint" />
            <mxPoint x="-140" y="130" as="offset" />
            <Array as="points">
              <mxPoint x="130" y="-1060" />
              <mxPoint x="550" y="-1060" />
            </Array>
          </mxGeometry>
        </mxCell>
        <mxCell id="_OpLvnGNROC4zTUCR6nX-81" value="" style="endArrow=block;endSize=16;endFill=0;html=1;rounded=0;entryX=0.5;entryY=0;entryDx=0;entryDy=0;exitX=0.5;exitY=1;exitDx=0;exitDy=0;" parent="1" source="7-aJ9GHmP8vsTWekd-Si-78" target="7-aJ9GHmP8vsTWekd-Si-12" edge="1">
          <mxGeometry x="-1" y="140" width="160" relative="1" as="geometry">
            <mxPoint x="1210" y="-690" as="sourcePoint" />
            <mxPoint x="1370" y="-690" as="targetPoint" />
            <mxPoint x="-140" y="130" as="offset" />
            <Array as="points">
              <mxPoint x="410" y="-1060" />
              <mxPoint x="550" y="-1060" />
            </Array>
          </mxGeometry>
        </mxCell>
        <mxCell id="_OpLvnGNROC4zTUCR6nX-83" value="" style="endArrow=block;endSize=16;endFill=0;html=1;rounded=0;entryX=0.5;entryY=0;entryDx=0;entryDy=0;exitX=0.5;exitY=1;exitDx=0;exitDy=0;" parent="1" source="7-aJ9GHmP8vsTWekd-Si-81" target="7-aJ9GHmP8vsTWekd-Si-12" edge="1">
          <mxGeometry x="-1" y="140" width="160" relative="1" as="geometry">
            <mxPoint x="1230" y="-670" as="sourcePoint" />
            <mxPoint x="1390" y="-670" as="targetPoint" />
            <mxPoint x="-140" y="130" as="offset" />
            <Array as="points">
              <mxPoint x="130" y="-950" />
              <mxPoint x="410" y="-950" />
              <mxPoint x="410" y="-840" />
              <mxPoint x="550" y="-840" />
            </Array>
          </mxGeometry>
        </mxCell>
        <mxCell id="_OpLvnGNROC4zTUCR6nX-84" value="" style="endArrow=block;endSize=16;endFill=0;html=1;rounded=0;entryX=0.5;entryY=0;entryDx=0;entryDy=0;exitX=0.5;exitY=1;exitDx=0;exitDy=0;" parent="1" source="7-aJ9GHmP8vsTWekd-Si-85" target="7-aJ9GHmP8vsTWekd-Si-12" edge="1">
          <mxGeometry x="-1" y="140" width="160" relative="1" as="geometry">
            <mxPoint x="1240" y="-660" as="sourcePoint" />
            <mxPoint x="1400" y="-660" as="targetPoint" />
            <mxPoint x="-140" y="130" as="offset" />
            <Array as="points">
              <mxPoint x="410" y="-840" />
              <mxPoint x="550" y="-840" />
            </Array>
          </mxGeometry>
        </mxCell>
        <mxCell id="031Zr63KP_oAU6r8j8Qe-2" value="" style="endArrow=block;endSize=16;endFill=0;html=1;rounded=0;entryX=1;entryY=0.5;entryDx=0;entryDy=0;" parent="1" target="7-aJ9GHmP8vsTWekd-Si-121" edge="1">
          <mxGeometry width="160" relative="1" as="geometry">
            <mxPoint x="430" y="-675" as="sourcePoint" />
            <mxPoint x="590" y="-680" as="targetPoint" />
          </mxGeometry>
        </mxCell>
        <mxCell id="031Zr63KP_oAU6r8j8Qe-3" value="" style="endArrow=block;endSize=16;endFill=0;html=1;rounded=0;entryX=1;entryY=0.5;entryDx=0;entryDy=0;exitX=0;exitY=0.5;exitDx=0;exitDy=0;" parent="1" source="7-aJ9GHmP8vsTWekd-Si-80" target="7-aJ9GHmP8vsTWekd-Si-12" edge="1">
          <mxGeometry width="160" relative="1" as="geometry">
            <mxPoint x="430" y="-680" as="sourcePoint" />
            <mxPoint x="590" y="-680" as="targetPoint" />
          </mxGeometry>
        </mxCell>
        <mxCell id="031Zr63KP_oAU6r8j8Qe-4" value="" style="endArrow=block;endSize=16;endFill=0;html=1;rounded=0;entryX=1;entryY=0.5;entryDx=0;entryDy=0;exitX=0;exitY=0.5;exitDx=0;exitDy=0;" parent="1" source="7-aJ9GHmP8vsTWekd-Si-54" target="7-aJ9GHmP8vsTWekd-Si-90" edge="1">
          <mxGeometry width="160" relative="1" as="geometry">
            <mxPoint x="-686.5" y="-400" as="sourcePoint" />
            <mxPoint x="-526.5" y="-400" as="targetPoint" />
          </mxGeometry>
        </mxCell>
        <mxCell id="031Zr63KP_oAU6r8j8Qe-5" value="" style="endArrow=block;endSize=16;endFill=0;html=1;rounded=0;entryX=1;entryY=0.5;entryDx=0;entryDy=0;exitX=0;exitY=0.5;exitDx=0;exitDy=0;" parent="1" source="7-aJ9GHmP8vsTWekd-Si-90" target="7-aJ9GHmP8vsTWekd-Si-61" edge="1">
          <mxGeometry width="160" relative="1" as="geometry">
            <mxPoint x="-686.5" y="-400" as="sourcePoint" />
            <mxPoint x="-526.5" y="-400" as="targetPoint" />
          </mxGeometry>
        </mxCell>
        <mxCell id="7-aJ9GHmP8vsTWekd-Si-83" value="&lt;p style=&quot;margin: 0px ; margin-top: 4px ; text-align: center&quot;&gt;&lt;b&gt;Thread Implementation&lt;/b&gt;&lt;/p&gt;&lt;hr size=&quot;1&quot;&gt;&lt;div style=&quot;height: 2px&quot;&gt;&lt;/div&gt;" style="verticalAlign=top;align=left;overflow=fill;fontSize=12;fontFamily=Helvetica;html=1;" parent="1" vertex="1">
          <mxGeometry x="430" y="-920" width="240" height="50" as="geometry" />
        </mxCell>
      </root>
    </mxGraphModel>
  </diagram>
</mxfile>
